<svg width="971" height="319" viewBox="0 0 971 319" fill="none" xmlns="http://www.w3.org/2000/svg">
<rect width="971" height="319" rx="16" fill="#A59D9D"/>
<rect width="971" height="319" rx="16" stroke="#A59D9D"/>
<path d="M54.9805 220.495L151.763 231.425L248.545 220.97L345.327 168.223L442.109 24L538.891 41.1072L635.673 197.448L732.455 192.696L829.237 124.742L926.019 165.134" stroke="#47074A"/>
<path d="M54.9806 224.894C57.394 224.894 59.3504 222.904 59.3504 220.449C59.3504 217.994 57.394 216.004 54.9806 216.004C52.5672 216.004 50.6108 217.994 50.6108 220.449C50.6108 222.904 52.5672 224.894 54.9806 224.894Z" fill="#A59D9D" stroke="#47074A"/>
<path d="M151.763 235.799C154.176 235.799 156.133 233.809 156.133 231.354C156.133 228.899 154.176 226.909 151.763 226.909C149.349 226.909 147.393 228.899 147.393 231.354C147.393 233.809 149.349 235.799 151.763 235.799Z" fill="#A59D9D" stroke="#47074A"/>
<path d="M248.545 225.368C250.958 225.368 252.915 223.378 252.915 220.923C252.915 218.469 250.958 216.479 248.545 216.479C246.131 216.479 244.175 218.469 244.175 220.923C244.175 223.378 246.131 225.368 248.545 225.368Z" fill="#A59D9D" stroke="#47074A"/>
<path d="M345.327 172.74C347.74 172.74 349.697 170.75 349.697 168.296C349.697 165.841 347.74 163.851 345.327 163.851C342.913 163.851 340.957 165.841 340.957 168.296C340.957 170.75 342.913 172.74 345.327 172.74Z" fill="#A59D9D" stroke="#47074A"/>
<path d="M442.109 28.842C444.522 28.842 446.479 26.852 446.479 24.3971C446.479 21.9422 444.522 19.9521 442.109 19.9521C439.696 19.9521 437.739 21.9422 437.739 24.3971C437.739 26.852 439.696 28.842 442.109 28.842Z" fill="#A59D9D" stroke="#47074A"/>
<path d="M538.891 45.9104C541.305 45.9104 543.261 43.9203 543.261 41.4655C543.261 39.0106 541.305 37.0205 538.891 37.0205C536.478 37.0205 534.521 39.0106 534.521 41.4655C534.521 43.9203 536.478 45.9104 538.891 45.9104Z" fill="#A59D9D" stroke="#47074A"/>
<path d="M635.673 201.899C638.087 201.899 640.043 199.909 640.043 197.454C640.043 194.999 638.087 193.009 635.673 193.009C633.26 193.009 631.303 194.999 631.303 197.454C631.303 199.909 633.26 201.899 635.673 201.899Z" fill="#A59D9D" stroke="#47074A"/>
<path d="M732.455 197.157C734.869 197.157 736.825 195.167 736.825 192.713C736.825 190.258 734.869 188.268 732.455 188.268C730.042 188.268 728.085 190.258 728.085 192.713C728.085 195.167 730.042 197.157 732.455 197.157Z" fill="#A59D9D" stroke="#47074A"/>
<path d="M829.237 129.357C831.651 129.357 833.607 127.367 833.607 124.912C833.607 122.457 831.651 120.467 829.237 120.467C826.824 120.467 824.868 122.457 824.868 124.912C824.868 127.367 826.824 129.357 829.237 129.357Z" fill="#A59D9D" stroke="#47074A"/>
<path d="M926.019 169.658C928.433 169.658 930.389 167.668 930.389 165.213C930.389 162.759 928.433 160.769 926.019 160.769C923.606 160.769 921.65 162.759 921.65 165.213C921.65 167.668 923.606 169.658 926.019 169.658Z" fill="#A59D9D" stroke="#47074A"/>
<path d="M49.9807 246.294H921.02" stroke="#323232"/>
<path d="M49.9807 255.204V246.294" stroke="#323232"/>
<path d="M49.9806 279.976C49.3386 279.976 48.7917 279.801 48.34 279.452C47.8883 279.099 47.5431 278.589 47.3045 277.922C47.0659 277.251 46.9466 276.442 46.9466 275.493C46.9466 274.55 47.0659 273.744 47.3045 273.077C47.546 272.406 47.8926 271.895 48.3443 271.543C48.7988 271.187 49.3443 271.01 49.9806 271.01C50.617 271.01 51.161 271.187 51.6127 271.543C52.0673 271.895 52.4139 272.406 52.6525 273.077C52.894 273.744 53.0147 274.55 53.0147 275.493C53.0147 276.442 52.8954 277.251 52.6568 277.922C52.4181 278.589 52.073 279.099 51.6213 279.452C51.1696 279.801 50.6227 279.976 49.9806 279.976ZM49.9806 279.038C50.617 279.038 51.1113 278.731 51.4636 278.118C51.8159 277.504 51.992 276.629 51.992 275.493C51.992 274.737 51.911 274.094 51.7491 273.562C51.59 273.031 51.3599 272.626 51.0588 272.348C50.7605 272.07 50.4011 271.93 49.9806 271.93C49.35 271.93 48.8571 272.241 48.502 272.864C48.1468 273.483 47.9693 274.359 47.9693 275.493C47.9693 276.248 48.0488 276.891 48.2079 277.419C48.367 277.947 48.5957 278.349 48.894 278.625C49.1951 278.9 49.5573 279.038 49.9806 279.038Z" fill="#47074A"/>
<path d="M146.763 255.204V246.294" stroke="#323232"/>
<path d="M147.945 271.129V279.856H146.889V272.237H146.837L144.707 273.652V272.578L146.889 271.129H147.945Z" fill="#47074A"/>
<path d="M243.545 255.204V246.294" stroke="#323232"/>
<path d="M240.815 279.856V279.089L243.696 275.936C244.034 275.567 244.313 275.246 244.531 274.973C244.75 274.697 244.912 274.439 245.017 274.197C245.125 273.953 245.179 273.697 245.179 273.43C245.179 273.123 245.105 272.858 244.957 272.633C244.813 272.409 244.614 272.236 244.361 272.114C244.108 271.991 243.824 271.93 243.509 271.93C243.173 271.93 242.881 272 242.631 272.139C242.384 272.275 242.192 272.467 242.056 272.714C241.922 272.962 241.855 273.251 241.855 273.584H240.85C240.85 273.072 240.967 272.623 241.203 272.237C241.439 271.851 241.76 271.55 242.166 271.334C242.575 271.118 243.034 271.01 243.543 271.01C244.054 271.01 244.507 271.118 244.902 271.334C245.297 271.55 245.607 271.841 245.831 272.207C246.056 272.574 246.168 272.981 246.168 273.43C246.168 273.751 246.109 274.065 245.993 274.372C245.879 274.676 245.681 275.016 245.396 275.391C245.115 275.763 244.725 276.217 244.225 276.754L242.264 278.851V278.919H246.321V279.856H240.815Z" fill="#47074A"/>
<path d="M340.327 255.204V246.294" stroke="#323232"/>
<path d="M340.359 279.976C339.796 279.976 339.295 279.879 338.855 279.686C338.417 279.493 338.069 279.224 337.811 278.881C337.555 278.534 337.416 278.132 337.393 277.675H338.467C338.489 277.956 338.586 278.199 338.757 278.403C338.927 278.605 339.15 278.761 339.426 278.872C339.701 278.983 340.007 279.038 340.342 279.038C340.717 279.038 341.049 278.973 341.339 278.842C341.629 278.712 341.856 278.53 342.021 278.297C342.186 278.064 342.268 277.794 342.268 277.487C342.268 277.166 342.188 276.883 342.029 276.639C341.87 276.392 341.637 276.199 341.33 276.06C341.024 275.92 340.649 275.851 340.205 275.851H339.507V274.913H340.205C340.552 274.913 340.856 274.851 341.117 274.726C341.382 274.601 341.587 274.425 341.735 274.197C341.886 273.97 341.961 273.703 341.961 273.396C341.961 273.101 341.896 272.844 341.765 272.625C341.634 272.406 341.45 272.236 341.211 272.114C340.975 271.991 340.697 271.93 340.376 271.93C340.075 271.93 339.791 271.986 339.524 272.097C339.259 272.204 339.043 272.362 338.876 272.57C338.708 272.774 338.617 273.021 338.603 273.311H337.58C337.597 272.854 337.735 272.453 337.994 272.109C338.252 271.763 338.59 271.493 339.008 271.3C339.428 271.106 339.89 271.01 340.393 271.01C340.933 271.01 341.396 271.119 341.782 271.338C342.168 271.554 342.465 271.839 342.673 272.195C342.88 272.55 342.984 272.933 342.984 273.345C342.984 273.837 342.855 274.256 342.596 274.602C342.34 274.949 341.992 275.189 341.552 275.322V275.391C342.103 275.481 342.534 275.716 342.843 276.094C343.153 276.469 343.308 276.933 343.308 277.487C343.308 277.962 343.178 278.388 342.92 278.766C342.664 279.141 342.315 279.436 341.872 279.652C341.428 279.868 340.924 279.976 340.359 279.976Z" fill="#47074A"/>
<path d="M437.109 255.204V246.294" stroke="#323232"/>
<path d="M433.958 278.067V277.197L437.794 271.129H438.424V272.476H437.998L435.1 277.061V277.129H440.265V278.067H433.958ZM438.066 279.856V277.802V277.398V271.129H439.072V279.856H438.066Z" fill="#47074A"/>
<path d="M533.891 255.204V246.294" stroke="#323232"/>
<path d="M533.872 279.976C533.372 279.976 532.921 279.876 532.521 279.677C532.12 279.479 531.799 279.206 531.558 278.859C531.316 278.513 531.184 278.118 531.161 277.675H532.184C532.224 278.07 532.403 278.396 532.721 278.655C533.042 278.91 533.426 279.038 533.872 279.038C534.23 279.038 534.548 278.954 534.826 278.787C535.107 278.619 535.328 278.389 535.487 278.097C535.649 277.801 535.73 277.467 535.73 277.095C535.73 276.714 535.646 276.375 535.478 276.077C535.313 275.775 535.086 275.538 534.796 275.365C534.507 275.192 534.176 275.104 533.803 275.101C533.536 275.098 533.262 275.139 532.981 275.224C532.7 275.307 532.468 275.413 532.286 275.544L531.298 275.425L531.826 271.129H536.36V272.067H532.712L532.406 274.641H532.457C532.636 274.498 532.86 274.381 533.13 274.287C533.4 274.193 533.681 274.146 533.974 274.146C534.508 274.146 534.984 274.274 535.401 274.53C535.822 274.783 536.151 275.129 536.39 275.57C536.632 276.01 536.752 276.513 536.752 277.078C536.752 277.635 536.627 278.132 536.377 278.57C536.13 279.004 535.789 279.348 535.355 279.601C534.92 279.851 534.426 279.976 533.872 279.976Z" fill="#47074A"/>
<path d="M630.673 255.204V246.294" stroke="#323232"/>
<path d="M630.73 279.976C630.372 279.97 630.014 279.902 629.656 279.771C629.298 279.641 628.972 279.42 628.676 279.111C628.381 278.798 628.144 278.376 627.965 277.845C627.786 277.311 627.696 276.641 627.696 275.834C627.696 275.061 627.769 274.376 627.914 273.78C628.058 273.18 628.269 272.676 628.544 272.267C628.82 271.855 629.152 271.543 629.541 271.329C629.933 271.116 630.375 271.01 630.867 271.01C631.355 271.01 631.79 271.108 632.171 271.304C632.554 271.497 632.867 271.767 633.108 272.114C633.35 272.46 633.506 272.859 633.577 273.311H632.537C632.44 272.919 632.253 272.594 631.975 272.335C631.696 272.077 631.327 271.947 630.867 271.947C630.19 271.947 629.658 272.241 629.269 272.829C628.882 273.418 628.688 274.243 628.685 275.305H628.753C628.912 275.064 629.101 274.858 629.32 274.687C629.541 274.514 629.786 274.381 630.053 274.287C630.32 274.193 630.602 274.146 630.901 274.146C631.401 274.146 631.858 274.271 632.273 274.521C632.688 274.768 633.02 275.111 633.27 275.548C633.52 275.983 633.645 276.481 633.645 277.044C633.645 277.584 633.524 278.078 633.283 278.527C633.041 278.973 632.702 279.328 632.264 279.592C631.83 279.854 631.318 279.981 630.73 279.976ZM630.73 279.038C631.088 279.038 631.409 278.949 631.693 278.77C631.98 278.591 632.206 278.351 632.371 278.05C632.539 277.748 632.622 277.413 632.622 277.044C632.622 276.683 632.541 276.355 632.379 276.06C632.22 275.761 632 275.524 631.719 275.348C631.44 275.172 631.122 275.084 630.764 275.084C630.494 275.084 630.243 275.138 630.01 275.246C629.777 275.351 629.573 275.496 629.396 275.68C629.223 275.865 629.087 276.077 628.987 276.315C628.888 276.551 628.838 276.8 628.838 277.061C628.838 277.408 628.919 277.731 629.081 278.033C629.246 278.334 629.47 278.577 629.754 278.761C630.041 278.946 630.367 279.038 630.73 279.038Z" fill="#47074A"/>
<path d="M727.455 255.204V246.294" stroke="#323232"/>
<path d="M725.204 279.856L729.107 272.135V272.067H724.607V271.129H730.198V272.118L726.312 279.856H725.204Z" fill="#47074A"/>
<path d="M824.238 255.204V246.294" stroke="#323232"/>
<path d="M824.239 279.976C823.654 279.976 823.137 279.872 822.688 279.665C822.242 279.454 821.894 279.166 821.644 278.8C821.394 278.43 821.27 278.01 821.273 277.538C821.27 277.169 821.343 276.828 821.49 276.516C821.638 276.2 821.84 275.937 822.096 275.727C822.354 275.514 822.642 275.379 822.961 275.322V275.271C822.543 275.163 822.211 274.929 821.964 274.568C821.716 274.204 821.594 273.791 821.597 273.328C821.594 272.885 821.706 272.489 821.934 272.139C822.161 271.79 822.473 271.514 822.871 271.312C823.272 271.111 823.728 271.01 824.239 271.01C824.745 271.01 825.196 271.111 825.594 271.312C825.992 271.514 826.304 271.79 826.532 272.139C826.762 272.489 826.878 272.885 826.881 273.328C826.878 273.791 826.752 274.204 826.502 274.568C826.255 274.929 825.927 275.163 825.517 275.271V275.322C825.833 275.379 826.117 275.514 826.37 275.727C826.623 275.937 826.824 276.2 826.975 276.516C827.125 276.828 827.202 277.169 827.205 277.538C827.202 278.01 827.074 278.43 826.821 278.8C826.571 279.166 826.223 279.454 825.777 279.665C825.334 279.872 824.821 279.976 824.239 279.976ZM824.239 279.038C824.634 279.038 824.975 278.974 825.262 278.847C825.549 278.719 825.77 278.538 825.927 278.305C826.083 278.072 826.162 277.8 826.165 277.487C826.162 277.158 826.077 276.866 825.91 276.614C825.742 276.361 825.513 276.162 825.223 276.017C824.937 275.872 824.608 275.8 824.239 275.8C823.867 275.8 823.535 275.872 823.242 276.017C822.952 276.162 822.723 276.361 822.556 276.614C822.391 276.866 822.31 277.158 822.313 277.487C822.31 277.8 822.385 278.072 822.539 278.305C822.695 278.538 822.918 278.719 823.208 278.847C823.498 278.974 823.841 279.038 824.239 279.038ZM824.239 274.896C824.552 274.896 824.829 274.834 825.07 274.709C825.314 274.584 825.506 274.409 825.645 274.185C825.785 273.96 825.856 273.697 825.858 273.396C825.856 273.101 825.786 272.844 825.65 272.625C825.513 272.403 825.324 272.233 825.083 272.114C824.841 271.991 824.56 271.93 824.239 271.93C823.912 271.93 823.627 271.991 823.383 272.114C823.138 272.233 822.949 272.403 822.816 272.625C822.682 272.844 822.617 273.101 822.62 273.396C822.617 273.697 822.684 273.96 822.82 274.185C822.959 274.409 823.151 274.584 823.395 274.709C823.64 274.834 823.921 274.896 824.239 274.896Z" fill="#47074A"/>
<path d="M921.02 255.204V246.294" stroke="#323232"/>
<path d="M920.957 271.01C921.315 271.013 921.673 271.081 922.031 271.214C922.389 271.348 922.716 271.57 923.011 271.879C923.307 272.186 923.544 272.605 923.723 273.136C923.902 273.668 923.991 274.334 923.991 275.135C923.991 275.91 923.917 276.599 923.77 277.202C923.625 277.801 923.415 278.307 923.139 278.719C922.866 279.131 922.534 279.443 922.142 279.656C921.753 279.869 921.312 279.976 920.821 279.976C920.332 279.976 919.896 279.879 919.513 279.686C919.132 279.49 918.819 279.219 918.575 278.872C918.334 278.523 918.179 278.118 918.111 277.658H919.15C919.244 278.058 919.43 278.389 919.709 278.65C919.99 278.909 920.361 279.038 920.821 279.038C921.494 279.038 922.025 278.744 922.415 278.156C922.807 277.568 923.003 276.737 923.003 275.663H922.934C922.775 275.902 922.586 276.108 922.368 276.281C922.149 276.454 921.906 276.588 921.639 276.682C921.372 276.775 921.088 276.822 920.787 276.822C920.287 276.822 919.828 276.699 919.41 276.452C918.995 276.202 918.663 275.859 918.413 275.425C918.166 274.987 918.042 274.487 918.042 273.925C918.042 273.391 918.162 272.902 918.4 272.459C918.642 272.013 918.98 271.658 919.415 271.393C919.852 271.129 920.366 271.001 920.957 271.01ZM920.957 271.947C920.599 271.947 920.277 272.037 919.99 272.216C919.706 272.392 919.48 272.631 919.312 272.932C919.147 273.23 919.065 273.561 919.065 273.925C919.065 274.288 919.145 274.619 919.304 274.918C919.466 275.213 919.686 275.449 919.964 275.625C920.245 275.798 920.565 275.885 920.923 275.885C921.193 275.885 921.444 275.832 921.677 275.727C921.91 275.619 922.113 275.473 922.287 275.288C922.463 275.101 922.601 274.889 922.7 274.653C922.799 274.415 922.849 274.166 922.849 273.908C922.849 273.567 922.767 273.247 922.602 272.949C922.44 272.65 922.216 272.409 921.929 272.224C921.645 272.04 921.321 271.947 920.957 271.947Z" fill="#47074A"/>
<path d="M50.2634 8.25684V245.857" stroke="#323232"/>
<path d="M41.5239 245.857H50.2634" stroke="#323232"/>
<path d="M30.4911 246.483C29.849 246.483 29.3022 246.308 28.8504 245.958C28.3987 245.606 28.0536 245.096 27.8149 244.429C27.5763 243.758 27.457 242.949 27.457 242C27.457 241.056 27.5763 240.251 27.8149 239.583C28.0564 238.913 28.403 238.402 28.8547 238.049C29.3093 237.694 29.8547 237.517 30.4911 237.517C31.1274 237.517 31.6715 237.694 32.1232 238.049C32.5777 238.402 32.9243 238.913 33.1629 239.583C33.4044 240.251 33.5252 241.056 33.5252 242C33.5252 242.949 33.4058 243.758 33.1672 244.429C32.9286 245.096 32.5834 245.606 32.1317 245.958C31.68 246.308 31.1331 246.483 30.4911 246.483ZM30.4911 245.545C31.1274 245.545 31.6218 245.238 31.974 244.625C32.3263 244.011 32.5024 243.136 32.5024 242C32.5024 241.244 32.4215 240.6 32.2595 240.069C32.1004 239.538 31.8703 239.133 31.5692 238.855C31.2709 238.576 30.9115 238.437 30.4911 238.437C29.8604 238.437 29.3675 238.748 29.0124 239.37C28.6573 239.99 28.4797 240.866 28.4797 242C28.4797 242.755 28.5593 243.397 28.7183 243.926C28.8774 244.454 29.1061 244.856 29.4044 245.132C29.7056 245.407 30.0678 245.545 30.4911 245.545Z" fill="#47074A"/>
<path d="M41.5239 186.457H50.2634" stroke="#323232"/>
<path d="M13.078 186.963V186.196L15.9587 183.042C16.2968 182.673 16.5752 182.352 16.7939 182.079C17.0127 181.804 17.1746 181.545 17.2797 181.304C17.3877 181.059 17.4416 180.804 17.4416 180.537C17.4416 180.23 17.3678 179.964 17.22 179.74C17.0752 179.515 16.8763 179.342 16.6235 179.22C16.3706 179.098 16.0865 179.037 15.7712 179.037C15.436 179.037 15.1433 179.106 14.8933 179.246C14.6462 179.382 14.4544 179.574 14.3181 179.821C14.1845 180.068 14.1178 180.358 14.1178 180.69H13.1121C13.1121 180.179 13.23 179.73 13.4658 179.344C13.7016 178.957 14.0226 178.656 14.4289 178.44C14.8379 178.224 15.2968 178.116 15.8053 178.116C16.3166 178.116 16.7698 178.224 17.1646 178.44C17.5595 178.656 17.8692 178.947 18.0936 179.314C18.3181 179.68 18.4303 180.088 18.4303 180.537C18.4303 180.858 18.372 181.172 18.2556 181.479C18.1419 181.782 17.9431 182.122 17.659 182.497C17.3777 182.869 16.9871 183.324 16.4871 183.861L14.5269 185.957V186.025H18.5837V186.963H13.078ZM23.0709 187.082C22.5709 187.082 22.1206 186.983 21.72 186.784C21.3195 186.585 20.9985 186.312 20.757 185.966C20.5155 185.619 20.3834 185.224 20.3607 184.781H21.3834C21.4232 185.176 21.6021 185.503 21.9203 185.761C22.2414 186.017 22.6249 186.145 23.0709 186.145C23.4289 186.145 23.747 186.061 24.0254 185.893C24.3067 185.726 24.5269 185.496 24.686 185.203C24.8479 184.907 24.9289 184.574 24.9289 184.202C24.9289 183.821 24.845 183.481 24.6774 183.183C24.5127 182.882 24.2854 182.645 23.9956 182.471C23.7058 182.298 23.3749 182.21 23.0027 182.207C22.7357 182.204 22.4615 182.246 22.1803 182.331C21.899 182.413 21.6675 182.52 21.4857 182.65L20.497 182.531L21.0254 178.236H25.5595V179.173H21.9118L21.605 181.747H21.6561C21.8351 181.605 22.0595 181.487 22.3294 181.393C22.5993 181.3 22.8806 181.253 23.1732 181.253C23.7073 181.253 24.1831 181.381 24.6007 181.636C25.0212 181.889 25.3507 182.236 25.5894 182.676C25.8308 183.116 25.9516 183.619 25.9516 184.184C25.9516 184.741 25.8266 185.238 25.5766 185.676C25.3294 186.111 24.9885 186.454 24.5539 186.707C24.1192 186.957 23.6249 187.082 23.0709 187.082ZM30.491 187.082C29.849 187.082 29.3021 186.907 28.8504 186.558C28.3987 186.206 28.0535 185.696 27.8149 185.028C27.5762 184.358 27.4569 183.548 27.4569 182.599C27.4569 181.656 27.5762 180.851 27.8149 180.183C28.0563 179.513 28.4029 179.001 28.8546 178.649C29.3092 178.294 29.8546 178.116 30.491 178.116C31.1274 178.116 31.6714 178.294 32.1231 178.649C32.5776 179.001 32.9242 179.513 33.1629 180.183C33.4043 180.851 33.5251 181.656 33.5251 182.599C33.5251 183.548 33.4058 184.358 33.1671 185.028C32.9285 185.696 32.5833 186.206 32.1316 186.558C31.6799 186.907 31.133 187.082 30.491 187.082ZM30.491 186.145C31.1274 186.145 31.6217 185.838 31.974 185.224C32.3262 184.611 32.5024 183.736 32.5024 182.599C32.5024 181.844 32.4214 181.2 32.2595 180.669C32.1004 180.138 31.8703 179.733 31.5691 179.454C31.2708 179.176 30.9115 179.037 30.491 179.037C29.8603 179.037 29.3674 179.348 29.0123 179.97C28.6572 180.589 28.4796 181.466 28.4796 182.599C28.4796 183.355 28.5592 183.997 28.7183 184.525C28.8774 185.054 29.1061 185.456 29.4043 185.731C29.7055 186.007 30.0677 186.145 30.491 186.145Z" fill="#47074A"/>
<path d="M41.5239 127.058H50.2634" stroke="#323232"/>
<path d="M15.5709 127.683C15.0709 127.683 14.6206 127.583 14.22 127.384C13.8195 127.186 13.4985 126.913 13.257 126.566C13.0155 126.22 12.8834 125.825 12.8607 125.382H13.8834C13.9232 125.777 14.1021 126.103 14.4203 126.362C14.7414 126.617 15.1249 126.745 15.5709 126.745C15.9289 126.745 16.247 126.661 16.5254 126.494C16.8067 126.326 17.0269 126.096 17.186 125.804C17.3479 125.508 17.4289 125.174 17.4289 124.802C17.4289 124.421 17.345 124.082 17.1774 123.784C17.0127 123.483 16.7854 123.245 16.4956 123.072C16.2058 122.899 15.8749 122.811 15.5027 122.808C15.2357 122.805 14.9615 122.846 14.6803 122.931C14.399 123.014 14.1675 123.12 13.9857 123.251L12.997 123.132L13.5254 118.836H18.0595V119.774H14.4118L14.105 122.348H14.1561C14.3351 122.206 14.5595 122.088 14.8294 121.994C15.0993 121.9 15.3806 121.853 15.6732 121.853C16.2073 121.853 16.6831 121.981 17.1007 122.237C17.5212 122.49 17.8507 122.836 18.0894 123.277C18.3308 123.717 18.4516 124.22 18.4516 124.785C18.4516 125.342 18.3266 125.839 18.0766 126.277C17.8294 126.711 17.4885 127.055 17.0539 127.308C16.6192 127.558 16.1249 127.683 15.5709 127.683ZM22.991 127.683C22.349 127.683 21.8021 127.508 21.3504 127.159C20.8987 126.806 20.5535 126.296 20.3149 125.629C20.0762 124.958 19.9569 124.149 19.9569 123.2C19.9569 122.257 20.0762 121.451 20.3149 120.784C20.5563 120.113 20.9029 119.602 21.3546 119.25C21.8092 118.894 22.3546 118.717 22.991 118.717C23.6274 118.717 24.1714 118.894 24.6231 119.25C25.0776 119.602 25.4242 120.113 25.6629 120.784C25.9043 121.451 26.0251 122.257 26.0251 123.2C26.0251 124.149 25.9058 124.958 25.6671 125.629C25.4285 126.296 25.0833 126.806 24.6316 127.159C24.1799 127.508 23.633 127.683 22.991 127.683ZM22.991 126.745C23.6274 126.745 24.1217 126.438 24.474 125.825C24.8262 125.211 25.0024 124.336 25.0024 123.2C25.0024 122.444 24.9214 121.801 24.7595 121.269C24.6004 120.738 24.3703 120.333 24.0691 120.055C23.7708 119.777 23.4115 119.637 22.991 119.637C22.3603 119.637 21.8674 119.948 21.5123 120.571C21.1572 121.19 20.9796 122.066 20.9796 123.2C20.9796 123.956 21.0592 124.598 21.2183 125.126C21.3774 125.654 21.6061 126.056 21.9043 126.332C22.2055 126.608 22.5677 126.745 22.991 126.745ZM30.491 127.683C29.849 127.683 29.3021 127.508 28.8504 127.159C28.3987 126.806 28.0535 126.296 27.8149 125.629C27.5762 124.958 27.4569 124.149 27.4569 123.2C27.4569 122.257 27.5762 121.451 27.8149 120.784C28.0563 120.113 28.4029 119.602 28.8546 119.25C29.3092 118.894 29.8546 118.717 30.491 118.717C31.1274 118.717 31.6714 118.894 32.1231 119.25C32.5776 119.602 32.9242 120.113 33.1629 120.784C33.4043 121.451 33.5251 122.257 33.5251 123.2C33.5251 124.149 33.4058 124.958 33.1671 125.629C32.9285 126.296 32.5833 126.806 32.1316 127.159C31.6799 127.508 31.133 127.683 30.491 127.683ZM30.491 126.745C31.1274 126.745 31.6217 126.438 31.974 125.825C32.3262 125.211 32.5024 124.336 32.5024 123.2C32.5024 122.444 32.4214 121.801 32.2595 121.269C32.1004 120.738 31.8703 120.333 31.5691 120.055C31.2708 119.777 30.9115 119.637 30.491 119.637C29.8603 119.637 29.3674 119.948 29.0123 120.571C28.6572 121.19 28.4796 122.066 28.4796 123.2C28.4796 123.956 28.5592 124.598 28.7183 125.126C28.8774 125.654 29.1061 126.056 29.4043 126.332C29.7055 126.608 30.0677 126.745 30.491 126.745Z" fill="#47074A"/>
<path d="M41.5239 67.6572H50.2634" stroke="#323232"/>
<path d="M13.878 68.1631L17.7814 60.4415V60.3733H13.2814V59.4358H18.8723V60.4244L14.986 68.1631H13.878ZM23.0709 68.2824C22.5709 68.2824 22.1206 68.183 21.72 67.9841C21.3194 67.7852 20.9984 67.5125 20.7569 67.1659C20.5155 66.8193 20.3834 66.4244 20.3606 65.9813H21.3834C21.4231 66.3762 21.6021 66.7029 21.9203 66.9614C22.2413 67.2171 22.6248 67.3449 23.0709 67.3449C23.4288 67.3449 23.747 67.2611 24.0254 67.0935C24.3066 66.9259 24.5268 66.6958 24.6859 66.4031C24.8478 66.1077 24.9288 65.7739 24.9288 65.4017C24.9288 65.021 24.845 64.6816 24.6774 64.3833C24.5126 64.0821 24.2853 63.8449 23.9956 63.6716C23.7058 63.4983 23.3748 63.4102 23.0027 63.4074C22.7356 63.4046 22.4615 63.4458 22.1802 63.531C21.899 63.6134 21.6674 63.7199 21.4856 63.8506L20.497 63.7313L21.0254 59.4358H25.5595V60.3733H21.9118L21.6049 62.9472H21.6561C21.8351 62.8051 22.0595 62.6872 22.3294 62.5935C22.5993 62.4997 22.8805 62.4529 23.1731 62.4529C23.7072 62.4529 24.1831 62.5807 24.6007 62.8364C25.0211 63.0892 25.3507 63.4358 25.5893 63.8762C25.8308 64.3165 25.9515 64.8193 25.9515 65.3847C25.9515 65.9415 25.8265 66.4387 25.5765 66.8762C25.3294 67.3108 24.9885 67.6546 24.5538 67.9074C24.1191 68.1574 23.6248 68.2824 23.0709 68.2824ZM30.491 68.2824C29.8489 68.2824 29.302 68.1077 28.8503 67.7583C28.3986 67.406 28.0535 66.896 27.8148 66.2284C27.5762 65.558 27.4569 64.7483 27.4569 63.7994C27.4569 62.8563 27.5762 62.0509 27.8148 61.3833C28.0563 60.7128 28.4029 60.2014 28.8546 59.8492C29.3091 59.4941 29.8546 59.3165 30.491 59.3165C31.1273 59.3165 31.6713 59.4941 32.1231 59.8492C32.5776 60.2014 32.9242 60.7128 33.1628 61.3833C33.4043 62.0509 33.525 62.8563 33.525 63.7994C33.525 64.7483 33.4057 65.558 33.1671 66.2284C32.9285 66.896 32.5833 67.406 32.1316 67.7583C31.6799 68.1077 31.133 68.2824 30.491 68.2824ZM30.491 67.3449C31.1273 67.3449 31.6216 67.0381 31.9739 66.4244C32.3262 65.8108 32.5023 64.9358 32.5023 63.7994C32.5023 63.0438 32.4213 62.4003 32.2594 61.8691C32.1003 61.3378 31.8702 60.933 31.5691 60.6546C31.2708 60.3762 30.9114 60.2369 30.491 60.2369C29.8603 60.2369 29.3674 60.548 29.0123 61.1702C28.6571 61.7895 28.4796 62.6659 28.4796 63.7994C28.4796 64.5551 28.5591 65.1972 28.7182 65.7256C28.8773 66.254 29.106 66.656 29.4043 66.9316C29.7054 67.2071 30.0677 67.3449 30.491 67.3449Z" fill="#47074A"/>
<path d="M41.5239 8.25684H50.2634" stroke="#323232"/>
<path d="M10.1345 6.27273V15H9.07766V7.38068H9.02653L6.89585 8.79545V7.72159L9.07766 6.27273H10.1345ZM15.491 15.1193C14.849 15.1193 14.3021 14.9446 13.8504 14.5952C13.3987 14.2429 13.0535 13.733 12.8149 13.0653C12.5762 12.3949 12.4569 11.5852 12.4569 10.6364C12.4569 9.69318 12.5762 8.88778 12.8149 8.22017C13.0564 7.54972 13.4029 7.03835 13.8547 6.68608C14.3092 6.33097 14.8547 6.15341 15.491 6.15341C16.1274 6.15341 16.6714 6.33097 17.1231 6.68608C17.5777 7.03835 17.9243 7.54972 18.1629 8.22017C18.4044 8.88778 18.5251 9.69318 18.5251 10.6364C18.5251 11.5852 18.4058 12.3949 18.1672 13.0653C17.9285 13.733 17.5833 14.2429 17.1316 14.5952C16.6799 14.9446 16.1331 15.1193 15.491 15.1193ZM15.491 14.1818C16.1274 14.1818 16.6217 13.875 16.974 13.2614C17.3262 12.6477 17.5024 11.7727 17.5024 10.6364C17.5024 9.88068 17.4214 9.23722 17.2595 8.70597C17.1004 8.17472 16.8703 7.76989 16.5691 7.49148C16.2708 7.21307 15.9115 7.07386 15.491 7.07386C14.8603 7.07386 14.3674 7.38494 14.0123 8.0071C13.6572 8.62642 13.4797 9.50284 13.4797 10.6364C13.4797 11.392 13.5592 12.0341 13.7183 12.5625C13.8774 13.0909 14.1061 13.4929 14.4044 13.7685C14.7055 14.044 15.0677 14.1818 15.491 14.1818ZM22.991 15.1193C22.349 15.1193 21.8021 14.9446 21.3504 14.5952C20.8987 14.2429 20.5535 13.733 20.3149 13.0653C20.0762 12.3949 19.9569 11.5852 19.9569 10.6364C19.9569 9.69318 20.0762 8.88778 20.3149 8.22017C20.5564 7.54972 20.9029 7.03835 21.3547 6.68608C21.8092 6.33097 22.3547 6.15341 22.991 6.15341C23.6274 6.15341 24.1714 6.33097 24.6231 6.68608C25.0777 7.03835 25.4243 7.54972 25.6629 8.22017C25.9044 8.88778 26.0251 9.69318 26.0251 10.6364C26.0251 11.5852 25.9058 12.3949 25.6672 13.0653C25.4285 13.733 25.0833 14.2429 24.6316 14.5952C24.1799 14.9446 23.6331 15.1193 22.991 15.1193ZM22.991 14.1818C23.6274 14.1818 24.1217 13.875 24.474 13.2614C24.8262 12.6477 25.0024 11.7727 25.0024 10.6364C25.0024 9.88068 24.9214 9.23722 24.7595 8.70597C24.6004 8.17472 24.3703 7.76989 24.0691 7.49148C23.7708 7.21307 23.4115 7.07386 22.991 7.07386C22.3603 7.07386 21.8674 7.38494 21.5123 8.0071C21.1572 8.62642 20.9797 9.50284 20.9797 10.6364C20.9797 11.392 21.0592 12.0341 21.2183 12.5625C21.3774 13.0909 21.6061 13.4929 21.9044 13.7685C22.2055 14.044 22.5677 14.1818 22.991 14.1818ZM30.491 15.1193C29.849 15.1193 29.3021 14.9446 28.8504 14.5952C28.3987 14.2429 28.0535 13.733 27.8149 13.0653C27.5762 12.3949 27.4569 11.5852 27.4569 10.6364C27.4569 9.69318 27.5762 8.88778 27.8149 8.22017C28.0564 7.54972 28.4029 7.03835 28.8547 6.68608C29.3092 6.33097 29.8547 6.15341 30.491 6.15341C31.1274 6.15341 31.6714 6.33097 32.1231 6.68608C32.5777 7.03835 32.9243 7.54972 33.1629 8.22017C33.4044 8.88778 33.5251 9.69318 33.5251 10.6364C33.5251 11.5852 33.4058 12.3949 33.1672 13.0653C32.9285 13.733 32.5833 14.2429 32.1316 14.5952C31.6799 14.9446 31.1331 15.1193 30.491 15.1193ZM30.491 14.1818C31.1274 14.1818 31.6217 13.875 31.974 13.2614C32.3262 12.6477 32.5024 11.7727 32.5024 10.6364C32.5024 9.88068 32.4214 9.23722 32.2595 8.70597C32.1004 8.17472 31.8703 7.76989 31.5691 7.49148C31.2708 7.21307 30.9115 7.07386 30.491 7.07386C29.8603 7.07386 29.3674 7.38494 29.0123 8.0071C28.6572 8.62642 28.4797 9.50284 28.4797 10.6364C28.4797 11.392 28.5592 12.0341 28.7183 12.5625C28.8774 13.0909 29.1061 13.4929 29.4044 13.7685C29.7055 14.044 30.0677 14.1818 30.491 14.1818Z" fill="#47074A"/>
</svg>
