<svg width="971" height="319" viewBox="0 0 971 319" fill="none" xmlns="http://www.w3.org/2000/svg">
<rect width="971" height="319" rx="16" fill="#F4F4F5"/>
<rect width="971" height="319" rx="16" stroke="#52525B"/>
<path d="M50.2635 26.2568V263.857" stroke="#323232"/>
<path d="M41.5239 263.857H50.2634" stroke="#323232"/>
<path d="M30.491 264.483C29.849 264.483 29.3021 264.308 28.8504 263.958C28.3987 263.606 28.0535 263.096 27.8149 262.429C27.5762 261.758 27.4569 260.949 27.4569 260C27.4569 259.056 27.5762 258.251 27.8149 257.583C28.0564 256.913 28.4029 256.402 28.8546 256.049C29.3092 255.694 29.8546 255.517 30.491 255.517C31.1274 255.517 31.6714 255.694 32.1231 256.049C32.5777 256.402 32.9243 256.913 33.1629 257.583C33.4044 258.251 33.5251 259.056 33.5251 260C33.5251 260.949 33.4058 261.758 33.1671 262.429C32.9285 263.096 32.5833 263.606 32.1316 263.958C31.6799 264.308 31.1331 264.483 30.491 264.483ZM30.491 263.545C31.1274 263.545 31.6217 263.238 31.974 262.625C32.3262 262.011 32.5024 261.136 32.5024 260C32.5024 259.244 32.4214 258.6 32.2595 258.069C32.1004 257.538 31.8703 257.133 31.5691 256.855C31.2708 256.576 30.9115 256.437 30.491 256.437C29.8603 256.437 29.3674 256.748 29.0123 257.37C28.6572 257.99 28.4796 258.866 28.4796 260C28.4796 260.755 28.5592 261.397 28.7183 261.926C28.8774 262.454 29.1061 262.856 29.4044 263.132C29.7055 263.407 30.0677 263.545 30.491 263.545Z" fill="white"/>
<path d="M41.5239 204.457H50.2634" stroke="#323232"/>
<path d="M13.078 204.963V204.196L15.9587 201.042C16.2968 200.673 16.5752 200.352 16.7939 200.079C17.0127 199.804 17.1746 199.545 17.2797 199.304C17.3877 199.059 17.4416 198.804 17.4416 198.537C17.4416 198.23 17.3678 197.964 17.22 197.74C17.0752 197.515 16.8763 197.342 16.6235 197.22C16.3706 197.098 16.0865 197.037 15.7712 197.037C15.436 197.037 15.1433 197.106 14.8933 197.246C14.6462 197.382 14.4544 197.574 14.3181 197.821C14.1845 198.068 14.1178 198.358 14.1178 198.69H13.1121C13.1121 198.179 13.23 197.73 13.4658 197.344C13.7016 196.957 14.0226 196.656 14.4289 196.44C14.8379 196.224 15.2968 196.116 15.8053 196.116C16.3166 196.116 16.7698 196.224 17.1646 196.44C17.5595 196.656 17.8692 196.947 18.0936 197.314C18.3181 197.68 18.4303 198.088 18.4303 198.537C18.4303 198.858 18.372 199.172 18.2556 199.479C18.1419 199.782 17.9431 200.122 17.659 200.497C17.3777 200.869 16.9871 201.324 16.4871 201.861L14.5269 203.957V204.025H18.5837V204.963H13.078ZM23.0709 205.082C22.5709 205.082 22.1206 204.983 21.72 204.784C21.3195 204.585 20.9985 204.312 20.757 203.966C20.5155 203.619 20.3834 203.224 20.3607 202.781H21.3834C21.4232 203.176 21.6021 203.503 21.9203 203.761C22.2414 204.017 22.6249 204.145 23.0709 204.145C23.4289 204.145 23.747 204.061 24.0254 203.893C24.3067 203.726 24.5269 203.496 24.686 203.203C24.8479 202.907 24.9289 202.574 24.9289 202.202C24.9289 201.821 24.845 201.481 24.6774 201.183C24.5127 200.882 24.2854 200.645 23.9956 200.471C23.7058 200.298 23.3749 200.21 23.0027 200.207C22.7357 200.204 22.4615 200.246 22.1803 200.331C21.899 200.413 21.6675 200.52 21.4857 200.65L20.497 200.531L21.0254 196.236H25.5595V197.173H21.9118L21.605 199.747H21.6561C21.8351 199.605 22.0595 199.487 22.3294 199.393C22.5993 199.3 22.8806 199.253 23.1732 199.253C23.7073 199.253 24.1831 199.381 24.6007 199.636C25.0212 199.889 25.3507 200.236 25.5894 200.676C25.8308 201.116 25.9516 201.619 25.9516 202.184C25.9516 202.741 25.8266 203.238 25.5766 203.676C25.3294 204.111 24.9885 204.454 24.5539 204.707C24.1192 204.957 23.6249 205.082 23.0709 205.082ZM30.491 205.082C29.849 205.082 29.3021 204.907 28.8504 204.558C28.3987 204.206 28.0535 203.696 27.8149 203.028C27.5762 202.358 27.4569 201.548 27.4569 200.599C27.4569 199.656 27.5762 198.851 27.8149 198.183C28.0563 197.513 28.4029 197.001 28.8546 196.649C29.3092 196.294 29.8546 196.116 30.491 196.116C31.1274 196.116 31.6714 196.294 32.1231 196.649C32.5776 197.001 32.9242 197.513 33.1629 198.183C33.4043 198.851 33.5251 199.656 33.5251 200.599C33.5251 201.548 33.4058 202.358 33.1671 203.028C32.9285 203.696 32.5833 204.206 32.1316 204.558C31.6799 204.907 31.133 205.082 30.491 205.082ZM30.491 204.145C31.1274 204.145 31.6217 203.838 31.974 203.224C32.3262 202.611 32.5024 201.736 32.5024 200.599C32.5024 199.844 32.4214 199.2 32.2595 198.669C32.1004 198.138 31.8703 197.733 31.5691 197.454C31.2708 197.176 30.9115 197.037 30.491 197.037C29.8603 197.037 29.3674 197.348 29.0123 197.97C28.6572 198.589 28.4796 199.466 28.4796 200.599C28.4796 201.355 28.5592 201.997 28.7183 202.525C28.8774 203.054 29.1061 203.456 29.4043 203.731C29.7055 204.007 30.0677 204.145 30.491 204.145Z" fill="white"/>
<path d="M41.5239 145.058H50.2634" stroke="#323232"/>
<path d="M15.5709 145.683C15.0709 145.683 14.6206 145.583 14.22 145.384C13.8195 145.186 13.4985 144.913 13.257 144.566C13.0155 144.22 12.8834 143.825 12.8607 143.382H13.8834C13.9232 143.777 14.1021 144.103 14.4203 144.362C14.7414 144.617 15.1249 144.745 15.5709 144.745C15.9289 144.745 16.247 144.661 16.5254 144.494C16.8067 144.326 17.0269 144.096 17.186 143.804C17.3479 143.508 17.4289 143.174 17.4289 142.802C17.4289 142.421 17.345 142.082 17.1774 141.784C17.0127 141.483 16.7854 141.245 16.4956 141.072C16.2058 140.899 15.8749 140.811 15.5027 140.808C15.2357 140.805 14.9615 140.846 14.6803 140.931C14.399 141.014 14.1675 141.12 13.9857 141.251L12.997 141.132L13.5254 136.836H18.0595V137.774H14.4118L14.105 140.348H14.1561C14.3351 140.206 14.5595 140.088 14.8294 139.994C15.0993 139.9 15.3806 139.853 15.6732 139.853C16.2073 139.853 16.6831 139.981 17.1007 140.237C17.5212 140.49 17.8507 140.836 18.0894 141.277C18.3308 141.717 18.4516 142.22 18.4516 142.785C18.4516 143.342 18.3266 143.839 18.0766 144.277C17.8294 144.711 17.4885 145.055 17.0539 145.308C16.6192 145.558 16.1249 145.683 15.5709 145.683ZM22.991 145.683C22.349 145.683 21.8021 145.508 21.3504 145.159C20.8987 144.806 20.5535 144.296 20.3149 143.629C20.0762 142.958 19.9569 142.149 19.9569 141.2C19.9569 140.257 20.0762 139.451 20.3149 138.784C20.5563 138.113 20.9029 137.602 21.3546 137.25C21.8092 136.894 22.3546 136.717 22.991 136.717C23.6274 136.717 24.1714 136.894 24.6231 137.25C25.0776 137.602 25.4242 138.113 25.6629 138.784C25.9043 139.451 26.0251 140.257 26.0251 141.2C26.0251 142.149 25.9058 142.958 25.6671 143.629C25.4285 144.296 25.0833 144.806 24.6316 145.159C24.1799 145.508 23.633 145.683 22.991 145.683ZM22.991 144.745C23.6274 144.745 24.1217 144.438 24.474 143.825C24.8262 143.211 25.0024 142.336 25.0024 141.2C25.0024 140.444 24.9214 139.801 24.7595 139.269C24.6004 138.738 24.3703 138.333 24.0691 138.055C23.7708 137.777 23.4115 137.637 22.991 137.637C22.3603 137.637 21.8674 137.948 21.5123 138.571C21.1572 139.19 20.9796 140.066 20.9796 141.2C20.9796 141.956 21.0592 142.598 21.2183 143.126C21.3774 143.654 21.6061 144.056 21.9043 144.332C22.2055 144.608 22.5677 144.745 22.991 144.745ZM30.491 145.683C29.849 145.683 29.3021 145.508 28.8504 145.159C28.3987 144.806 28.0535 144.296 27.8149 143.629C27.5762 142.958 27.4569 142.149 27.4569 141.2C27.4569 140.257 27.5762 139.451 27.8149 138.784C28.0563 138.113 28.4029 137.602 28.8546 137.25C29.3092 136.894 29.8546 136.717 30.491 136.717C31.1274 136.717 31.6714 136.894 32.1231 137.25C32.5776 137.602 32.9242 138.113 33.1629 138.784C33.4043 139.451 33.5251 140.257 33.5251 141.2C33.5251 142.149 33.4058 142.958 33.1671 143.629C32.9285 144.296 32.5833 144.806 32.1316 145.159C31.6799 145.508 31.133 145.683 30.491 145.683ZM30.491 144.745C31.1274 144.745 31.6217 144.438 31.974 143.825C32.3262 143.211 32.5024 142.336 32.5024 141.2C32.5024 140.444 32.4214 139.801 32.2595 139.269C32.1004 138.738 31.8703 138.333 31.5691 138.055C31.2708 137.777 30.9115 137.637 30.491 137.637C29.8603 137.637 29.3674 137.948 29.0123 138.571C28.6572 139.19 28.4796 140.066 28.4796 141.2C28.4796 141.956 28.5592 142.598 28.7183 143.126C28.8774 143.654 29.1061 144.056 29.4043 144.332C29.7055 144.608 30.0677 144.745 30.491 144.745Z" fill="white"/>
<path d="M41.5239 85.6572H50.2634" stroke="#323232"/>
<path d="M13.8781 86.1631L17.7815 78.4415V78.3733H13.2815V77.4358H18.8724V78.4244L14.986 86.1631H13.8781ZM23.0709 86.2824C22.5709 86.2824 22.1206 86.183 21.7201 85.9841C21.3195 85.7852 20.9985 85.5125 20.757 85.1659C20.5155 84.8193 20.3834 84.4244 20.3607 83.9813H21.3834C21.4232 84.3762 21.6022 84.7029 21.9203 84.9614C22.2414 85.2171 22.6249 85.3449 23.0709 85.3449C23.4289 85.3449 23.747 85.2611 24.0255 85.0935C24.3067 84.9259 24.5269 84.6958 24.686 84.4031C24.8479 84.1077 24.9289 83.7739 24.9289 83.4017C24.9289 83.021 24.8451 82.6816 24.6774 82.3833C24.5127 82.0821 24.2854 81.8449 23.9956 81.6716C23.7059 81.4983 23.3749 81.4102 23.0027 81.4074C22.7357 81.4046 22.4615 81.4458 22.1803 81.531C21.899 81.6134 21.6675 81.7199 21.4857 81.8506L20.497 81.7313L21.0255 77.4358H25.5595V78.3733H21.9118L21.605 80.9472H21.6561C21.8351 80.8051 22.0595 80.6872 22.3294 80.5935C22.5993 80.4997 22.8806 80.4529 23.1732 80.4529C23.7073 80.4529 24.1831 80.5807 24.6007 80.8364C25.0212 81.0892 25.3507 81.4358 25.5894 81.8762C25.8309 82.3165 25.9516 82.8193 25.9516 83.3847C25.9516 83.9415 25.8266 84.4387 25.5766 84.8762C25.3294 85.3108 24.9885 85.6546 24.5539 85.9074C24.1192 86.1574 23.6249 86.2824 23.0709 86.2824ZM30.491 86.2824C29.849 86.2824 29.3021 86.1077 28.8504 85.7583C28.3987 85.406 28.0535 84.896 27.8149 84.2284C27.5762 83.558 27.4569 82.7483 27.4569 81.7994C27.4569 80.8563 27.5762 80.0509 27.8149 79.3833C28.0564 78.7128 28.4029 78.2014 28.8546 77.8492C29.3092 77.4941 29.8546 77.3165 30.491 77.3165C31.1274 77.3165 31.6714 77.4941 32.1231 77.8492C32.5777 78.2014 32.9243 78.7128 33.1629 79.3833C33.4044 80.0509 33.5251 80.8563 33.5251 81.7994C33.5251 82.7483 33.4058 83.558 33.1671 84.2284C32.9285 84.896 32.5833 85.406 32.1316 85.7583C31.6799 86.1077 31.1331 86.2824 30.491 86.2824ZM30.491 85.3449C31.1274 85.3449 31.6217 85.0381 31.974 84.4244C32.3262 83.8108 32.5024 82.9358 32.5024 81.7994C32.5024 81.0438 32.4214 80.4003 32.2595 79.8691C32.1004 79.3378 31.8703 78.933 31.5691 78.6546C31.2708 78.3762 30.9115 78.2369 30.491 78.2369C29.8603 78.2369 29.3674 78.548 29.0123 79.1702C28.6572 79.7895 28.4796 80.6659 28.4796 81.7994C28.4796 82.5551 28.5592 83.1972 28.7183 83.7256C28.8774 84.254 29.1061 84.656 29.4044 84.9316C29.7055 85.2071 30.0677 85.3449 30.491 85.3449Z" fill="white"/>
<path d="M41.5239 26.2568H50.2634" stroke="#323232"/>
<path d="M10.1345 24.2727V33H9.07766V25.3807H9.02653L6.89585 26.7955V25.7216L9.07766 24.2727H10.1345ZM15.491 33.1193C14.849 33.1193 14.3021 32.9446 13.8504 32.5952C13.3987 32.2429 13.0535 31.733 12.8149 31.0653C12.5762 30.3949 12.4569 29.5852 12.4569 28.6364C12.4569 27.6932 12.5762 26.8878 12.8149 26.2202C13.0564 25.5497 13.4029 25.0384 13.8547 24.6861C14.3092 24.331 14.8547 24.1534 15.491 24.1534C16.1274 24.1534 16.6714 24.331 17.1231 24.6861C17.5777 25.0384 17.9243 25.5497 18.1629 26.2202C18.4044 26.8878 18.5251 27.6932 18.5251 28.6364C18.5251 29.5852 18.4058 30.3949 18.1672 31.0653C17.9285 31.733 17.5833 32.2429 17.1316 32.5952C16.6799 32.9446 16.1331 33.1193 15.491 33.1193ZM15.491 32.1818C16.1274 32.1818 16.6217 31.875 16.974 31.2614C17.3262 30.6477 17.5024 29.7727 17.5024 28.6364C17.5024 27.8807 17.4214 27.2372 17.2595 26.706C17.1004 26.1747 16.8703 25.7699 16.5691 25.4915C16.2708 25.2131 15.9115 25.0739 15.491 25.0739C14.8603 25.0739 14.3674 25.3849 14.0123 26.0071C13.6572 26.6264 13.4797 27.5028 13.4797 28.6364C13.4797 29.392 13.5592 30.0341 13.7183 30.5625C13.8774 31.0909 14.1061 31.4929 14.4044 31.7685C14.7055 32.044 15.0677 32.1818 15.491 32.1818ZM22.991 33.1193C22.349 33.1193 21.8021 32.9446 21.3504 32.5952C20.8987 32.2429 20.5535 31.733 20.3149 31.0653C20.0762 30.3949 19.9569 29.5852 19.9569 28.6364C19.9569 27.6932 20.0762 26.8878 20.3149 26.2202C20.5564 25.5497 20.9029 25.0384 21.3547 24.6861C21.8092 24.331 22.3547 24.1534 22.991 24.1534C23.6274 24.1534 24.1714 24.331 24.6231 24.6861C25.0777 25.0384 25.4243 25.5497 25.6629 26.2202C25.9044 26.8878 26.0251 27.6932 26.0251 28.6364C26.0251 29.5852 25.9058 30.3949 25.6672 31.0653C25.4285 31.733 25.0833 32.2429 24.6316 32.5952C24.1799 32.9446 23.6331 33.1193 22.991 33.1193ZM22.991 32.1818C23.6274 32.1818 24.1217 31.875 24.474 31.2614C24.8262 30.6477 25.0024 29.7727 25.0024 28.6364C25.0024 27.8807 24.9214 27.2372 24.7595 26.706C24.6004 26.1747 24.3703 25.7699 24.0691 25.4915C23.7708 25.2131 23.4115 25.0739 22.991 25.0739C22.3603 25.0739 21.8674 25.3849 21.5123 26.0071C21.1572 26.6264 20.9797 27.5028 20.9797 28.6364C20.9797 29.392 21.0592 30.0341 21.2183 30.5625C21.3774 31.0909 21.6061 31.4929 21.9044 31.7685C22.2055 32.044 22.5677 32.1818 22.991 32.1818ZM30.491 33.1193C29.849 33.1193 29.3021 32.9446 28.8504 32.5952C28.3987 32.2429 28.0535 31.733 27.8149 31.0653C27.5762 30.3949 27.4569 29.5852 27.4569 28.6364C27.4569 27.6932 27.5762 26.8878 27.8149 26.2202C28.0564 25.5497 28.4029 25.0384 28.8547 24.6861C29.3092 24.331 29.8547 24.1534 30.491 24.1534C31.1274 24.1534 31.6714 24.331 32.1231 24.6861C32.5777 25.0384 32.9243 25.5497 33.1629 26.2202C33.4044 26.8878 33.5251 27.6932 33.5251 28.6364C33.5251 29.5852 33.4058 30.3949 33.1672 31.0653C32.9285 31.733 32.5833 32.2429 32.1316 32.5952C31.6799 32.9446 31.1331 33.1193 30.491 33.1193ZM30.491 32.1818C31.1274 32.1818 31.6217 31.875 31.974 31.2614C32.3262 30.6477 32.5024 29.7727 32.5024 28.6364C32.5024 27.8807 32.4214 27.2372 32.2595 26.706C32.1004 26.1747 31.8703 25.7699 31.5691 25.4915C31.2708 25.2131 30.9115 25.0739 30.491 25.0739C29.8603 25.0739 29.3674 25.3849 29.0123 26.0071C28.6572 26.6264 28.4797 27.5028 28.4797 28.6364C28.4797 29.392 28.5592 30.0341 28.7183 30.5625C28.8774 31.0909 29.1061 31.4929 29.4044 31.7685C29.7055 32.044 30.0677 32.1818 30.491 32.1818Z" fill="white"/>
<path d="M54.3698 232.95L151.152 243.88L247.934 233.425L344.716 180.678L441.498 36.4551L538.28 53.5623L635.062 209.903L731.844 205.151L828.626 137.197L925.409 177.589" stroke="#47074A"/>
<path d="M54.3698 237.405C56.7831 237.405 58.7395 235.411 58.7395 232.95C58.7395 230.49 56.7831 228.495 54.3698 228.495C51.9564 228.495 50 230.49 50 232.95C50 235.411 51.9564 237.405 54.3698 237.405Z" fill="#A59D9D" stroke="#47074A"/>
<path d="M151.152 248.335C153.565 248.335 155.522 246.34 155.522 243.88C155.522 241.419 153.565 239.425 151.152 239.425C148.739 239.425 146.782 241.419 146.782 243.88C146.782 246.34 148.739 248.335 151.152 248.335Z" fill="#A59D9D" stroke="#47074A"/>
<path d="M247.934 237.881C250.347 237.881 252.304 235.886 252.304 233.426C252.304 230.965 250.347 228.971 247.934 228.971C245.521 228.971 243.564 230.965 243.564 233.426C243.564 235.886 245.521 237.881 247.934 237.881Z" fill="#A59D9D" stroke="#47074A"/>
<path d="M344.716 185.134C347.129 185.134 349.086 183.139 349.086 180.679C349.086 178.218 347.129 176.224 344.716 176.224C342.303 176.224 340.346 178.218 340.346 180.679C340.346 183.139 342.303 185.134 344.716 185.134Z" fill="#A59D9D" stroke="#47074A"/>
<path d="M441.498 40.91C443.911 40.91 445.868 38.9154 445.868 36.455C445.868 33.9946 443.911 32 441.498 32C439.085 32 437.128 33.9946 437.128 36.455C437.128 38.9154 439.085 40.91 441.498 40.91Z" fill="#A59D9D" stroke="#47074A"/>
<path d="M538.28 58.0174C540.694 58.0174 542.65 56.0229 542.65 53.5624C542.65 51.102 540.694 49.1074 538.28 49.1074C535.867 49.1074 533.911 51.102 533.911 53.5624C533.911 56.0229 535.867 58.0174 538.28 58.0174Z" fill="#A59D9D" stroke="#47074A"/>
<path d="M635.062 214.358C637.476 214.358 639.432 212.364 639.432 209.903C639.432 207.443 637.476 205.448 635.062 205.448C632.649 205.448 630.693 207.443 630.693 209.903C630.693 212.364 632.649 214.358 635.062 214.358Z" fill="#A59D9D" stroke="#47074A"/>
<path d="M731.844 209.606C734.258 209.606 736.214 207.612 736.214 205.151C736.214 202.691 734.258 200.696 731.844 200.696C729.431 200.696 727.475 202.691 727.475 205.151C727.475 207.612 729.431 209.606 731.844 209.606Z" fill="#A59D9D" stroke="#47074A"/>
<path d="M828.627 141.652C831.04 141.652 832.996 139.658 832.996 137.197C832.996 134.737 831.04 132.742 828.627 132.742C826.213 132.742 824.257 134.737 824.257 137.197C824.257 139.658 826.213 141.652 828.627 141.652Z" fill="#A59D9D" stroke="#47074A"/>
<path d="M925.409 182.045C927.822 182.045 929.778 180.05 929.778 177.59C929.778 175.129 927.822 173.135 925.409 173.135C922.995 173.135 921.039 175.129 921.039 177.59C921.039 180.05 922.995 182.045 925.409 182.045Z" fill="#A59D9D" stroke="#47074A"/>
<path d="M49.9805 264.4H921.019" stroke="#323232"/>
<path d="M49.9805 273.31V264.4" stroke="#323232"/>
<path d="M49.9805 298.082C49.3385 298.082 48.7916 297.907 48.3399 297.558C47.8882 297.206 47.543 296.696 47.3044 296.028C47.0657 295.358 46.9464 294.548 46.9464 293.599C46.9464 292.656 47.0657 291.851 47.3044 291.183C47.5459 290.513 47.8925 290.001 48.3442 289.649C48.7987 289.294 49.3442 289.116 49.9805 289.116C50.6169 289.116 51.1609 289.294 51.6126 289.649C52.0672 290.001 52.4138 290.513 52.6524 291.183C52.8939 291.851 53.0146 292.656 53.0146 293.599C53.0146 294.548 52.8953 295.358 52.6567 296.028C52.418 296.696 52.0729 297.206 51.6211 297.558C51.1694 297.907 50.6226 298.082 49.9805 298.082ZM49.9805 297.145C50.6169 297.145 51.1112 296.838 51.4635 296.224C51.8157 295.611 51.9919 294.736 51.9919 293.599C51.9919 292.844 51.9109 292.2 51.749 291.669C51.5899 291.138 51.3598 290.733 51.0586 290.454C50.7604 290.176 50.401 290.037 49.9805 290.037C49.3498 290.037 48.8569 290.348 48.5018 290.97C48.1467 291.589 47.9692 292.466 47.9692 293.599C47.9692 294.355 48.0487 294.997 48.2078 295.525C48.3669 296.054 48.5956 296.456 48.8939 296.731C49.195 297.007 49.5572 297.145 49.9805 297.145Z" fill="white"/>
<path d="M146.763 273.31V264.4" stroke="#323232"/>
<path d="M147.945 289.236V297.963H146.888V290.344H146.837L144.707 291.758V290.684L146.888 289.236H147.945Z" fill="white"/>
<path d="M243.545 273.31V264.4" stroke="#323232"/>
<path d="M240.815 297.963V297.196L243.696 294.042C244.034 293.673 244.312 293.352 244.531 293.079C244.75 292.804 244.912 292.545 245.017 292.304C245.125 292.059 245.179 291.804 245.179 291.537C245.179 291.23 245.105 290.964 244.957 290.74C244.812 290.515 244.614 290.342 244.361 290.22C244.108 290.098 243.824 290.037 243.509 290.037C243.173 290.037 242.881 290.106 242.631 290.246C242.384 290.382 242.192 290.574 242.055 290.821C241.922 291.068 241.855 291.358 241.855 291.69H240.849C240.849 291.179 240.967 290.73 241.203 290.344C241.439 289.957 241.76 289.656 242.166 289.44C242.575 289.224 243.034 289.116 243.543 289.116C244.054 289.116 244.507 289.224 244.902 289.44C245.297 289.656 245.607 289.947 245.831 290.314C246.055 290.68 246.168 291.088 246.168 291.537C246.168 291.858 246.109 292.172 245.993 292.479C245.879 292.782 245.68 293.122 245.396 293.497C245.115 293.869 244.724 294.324 244.224 294.861L242.264 296.957V297.025H246.321V297.963H240.815Z" fill="white"/>
<path d="M340.327 273.31V264.4" stroke="#323232"/>
<path d="M340.359 298.082C339.796 298.082 339.295 297.986 338.855 297.792C338.417 297.599 338.069 297.331 337.811 296.987C337.555 296.64 337.416 296.238 337.393 295.781H338.467C338.489 296.062 338.586 296.305 338.757 296.51C338.927 296.711 339.15 296.868 339.426 296.979C339.701 297.089 340.007 297.145 340.342 297.145C340.717 297.145 341.049 297.079 341.339 296.949C341.629 296.818 341.856 296.636 342.021 296.403C342.186 296.17 342.268 295.9 342.268 295.594C342.268 295.273 342.188 294.99 342.029 294.746C341.87 294.498 341.637 294.305 341.33 294.166C341.024 294.027 340.649 293.957 340.205 293.957H339.507V293.02H340.205C340.552 293.02 340.856 292.957 341.117 292.832C341.382 292.707 341.587 292.531 341.735 292.304C341.886 292.077 341.961 291.809 341.961 291.503C341.961 291.207 341.896 290.95 341.765 290.731C341.634 290.513 341.45 290.342 341.211 290.22C340.975 290.098 340.697 290.037 340.376 290.037C340.075 290.037 339.791 290.092 339.524 290.203C339.259 290.311 339.043 290.469 338.876 290.676C338.708 290.881 338.617 291.128 338.603 291.417H337.58C337.597 290.96 337.735 290.559 337.994 290.216C338.252 289.869 338.59 289.599 339.008 289.406C339.428 289.213 339.89 289.116 340.393 289.116C340.933 289.116 341.396 289.226 341.782 289.444C342.168 289.66 342.465 289.946 342.673 290.301C342.88 290.656 342.984 291.04 342.984 291.452C342.984 291.943 342.855 292.362 342.596 292.709C342.34 293.055 341.992 293.295 341.552 293.429V293.497C342.103 293.588 342.534 293.822 342.843 294.2C343.153 294.575 343.308 295.04 343.308 295.594C343.308 296.068 343.178 296.494 342.92 296.872C342.664 297.247 342.315 297.542 341.872 297.758C341.428 297.974 340.924 298.082 340.359 298.082Z" fill="white"/>
<path d="M437.109 273.31V264.4" stroke="#323232"/>
<path d="M433.958 296.173V295.304L437.793 289.236H438.424V290.582H437.998L435.1 295.167V295.236H440.265V296.173H433.958ZM438.066 297.963V295.909V295.504V289.236H439.072V297.963H438.066Z" fill="white"/>
<path d="M533.891 273.31V264.4" stroke="#323232"/>
<path d="M533.871 298.082C533.371 298.082 532.921 297.983 532.52 297.784C532.12 297.585 531.799 297.312 531.557 296.966C531.316 296.619 531.184 296.224 531.161 295.781H532.184C532.224 296.176 532.403 296.503 532.721 296.761C533.042 297.017 533.425 297.145 533.871 297.145C534.229 297.145 534.547 297.061 534.826 296.893C535.107 296.726 535.327 296.496 535.486 296.203C535.648 295.907 535.729 295.574 535.729 295.202C535.729 294.821 535.645 294.481 535.478 294.183C535.313 293.882 535.086 293.645 534.796 293.471C534.506 293.298 534.175 293.21 533.803 293.207C533.536 293.204 533.262 293.246 532.981 293.331C532.699 293.413 532.468 293.52 532.286 293.65L531.297 293.531L531.826 289.236H536.36V290.173H532.712L532.405 292.747H532.457C532.636 292.605 532.86 292.487 533.13 292.393C533.4 292.3 533.681 292.253 533.974 292.253C534.508 292.253 534.984 292.381 535.401 292.636C535.822 292.889 536.151 293.236 536.39 293.676C536.631 294.116 536.752 294.619 536.752 295.184C536.752 295.741 536.627 296.238 536.377 296.676C536.13 297.111 535.789 297.454 535.354 297.707C534.92 297.957 534.425 298.082 533.871 298.082Z" fill="white"/>
<path d="M630.673 273.31V264.4" stroke="#323232"/>
<path d="M630.73 298.082C630.372 298.077 630.014 298.008 629.656 297.878C629.298 297.747 628.972 297.527 628.676 297.217C628.381 296.905 628.143 296.483 627.964 295.952C627.785 295.417 627.696 294.747 627.696 293.94C627.696 293.167 627.768 292.483 627.913 291.886C628.058 291.287 628.268 290.782 628.544 290.373C628.82 289.961 629.152 289.649 629.541 289.436C629.933 289.223 630.375 289.116 630.866 289.116C631.355 289.116 631.79 289.214 632.17 289.41C632.554 289.604 632.866 289.873 633.108 290.22C633.349 290.567 633.506 290.966 633.577 291.417H632.537C632.44 291.025 632.253 290.7 631.974 290.442C631.696 290.183 631.327 290.054 630.866 290.054C630.19 290.054 629.658 290.348 629.268 290.936C628.882 291.524 628.687 292.349 628.685 293.412H628.753C628.912 293.17 629.101 292.964 629.32 292.794C629.541 292.621 629.785 292.487 630.053 292.393C630.32 292.3 630.602 292.253 630.901 292.253C631.401 292.253 631.858 292.378 632.273 292.628C632.687 292.875 633.02 293.217 633.27 293.655C633.52 294.089 633.645 294.588 633.645 295.15C633.645 295.69 633.524 296.184 633.283 296.633C633.041 297.079 632.702 297.434 632.264 297.699C631.83 297.96 631.318 298.088 630.73 298.082ZM630.73 297.145C631.088 297.145 631.409 297.055 631.693 296.876C631.98 296.697 632.206 296.457 632.371 296.156C632.538 295.855 632.622 295.52 632.622 295.15C632.622 294.79 632.541 294.461 632.379 294.166C632.22 293.868 632 293.631 631.719 293.454C631.44 293.278 631.122 293.19 630.764 293.19C630.494 293.19 630.243 293.244 630.01 293.352C629.777 293.457 629.572 293.602 629.396 293.787C629.223 293.971 629.087 294.183 628.987 294.422C628.888 294.657 628.838 294.906 628.838 295.167C628.838 295.514 628.919 295.838 629.081 296.139C629.246 296.44 629.47 296.683 629.754 296.868C630.041 297.052 630.366 297.145 630.73 297.145Z" fill="white"/>
<path d="M727.455 273.31V264.4" stroke="#323232"/>
<path d="M725.204 297.963L729.107 290.241V290.173H724.607V289.236H730.198V290.224L726.312 297.963H725.204Z" fill="white"/>
<path d="M824.237 273.31V264.4" stroke="#323232"/>
<path d="M824.239 298.082C823.654 298.082 823.137 297.979 822.688 297.771C822.242 297.561 821.894 297.273 821.644 296.906C821.394 296.537 821.27 296.116 821.273 295.645C821.27 295.275 821.343 294.934 821.49 294.622C821.638 294.307 821.84 294.044 822.095 293.834C822.354 293.621 822.642 293.486 822.961 293.429V293.378C822.543 293.27 822.211 293.035 821.963 292.675C821.716 292.311 821.594 291.898 821.597 291.434C821.594 290.991 821.706 290.595 821.934 290.246C822.161 289.896 822.473 289.621 822.871 289.419C823.272 289.217 823.728 289.116 824.239 289.116C824.745 289.116 825.196 289.217 825.594 289.419C825.992 289.621 826.304 289.896 826.532 290.246C826.762 290.595 826.878 290.991 826.881 291.434C826.878 291.898 826.752 292.311 826.502 292.675C826.255 293.035 825.926 293.27 825.517 293.378V293.429C825.833 293.486 826.117 293.621 826.37 293.834C826.622 294.044 826.824 294.307 826.975 294.622C827.125 294.934 827.202 295.275 827.205 295.645C827.202 296.116 827.074 296.537 826.821 296.906C826.571 297.273 826.223 297.561 825.777 297.771C825.334 297.979 824.821 298.082 824.239 298.082ZM824.239 297.145C824.634 297.145 824.975 297.081 825.262 296.953C825.549 296.825 825.77 296.645 825.926 296.412C826.083 296.179 826.162 295.906 826.165 295.594C826.162 295.264 826.077 294.973 825.909 294.72C825.742 294.467 825.513 294.268 825.223 294.123C824.936 293.979 824.608 293.906 824.239 293.906C823.867 293.906 823.534 293.979 823.242 294.123C822.952 294.268 822.723 294.467 822.556 294.72C822.391 294.973 822.31 295.264 822.313 295.594C822.31 295.906 822.385 296.179 822.539 296.412C822.695 296.645 822.918 296.825 823.208 296.953C823.497 297.081 823.841 297.145 824.239 297.145ZM824.239 293.003C824.551 293.003 824.828 292.94 825.07 292.815C825.314 292.69 825.506 292.515 825.645 292.291C825.784 292.067 825.855 291.804 825.858 291.503C825.855 291.207 825.786 290.95 825.649 290.731C825.513 290.51 825.324 290.339 825.083 290.22C824.841 290.098 824.56 290.037 824.239 290.037C823.912 290.037 823.627 290.098 823.382 290.22C823.138 290.339 822.949 290.51 822.816 290.731C822.682 290.95 822.617 291.207 822.62 291.503C822.617 291.804 822.684 292.067 822.82 292.291C822.959 292.515 823.151 292.69 823.395 292.815C823.639 292.94 823.921 293.003 824.239 293.003Z" fill="white"/>
<path d="M921.019 273.31V264.4" stroke="#323232"/>
<path d="M920.957 289.116C921.315 289.119 921.673 289.187 922.031 289.321C922.389 289.454 922.716 289.676 923.011 289.986C923.307 290.292 923.544 290.711 923.723 291.243C923.902 291.774 923.991 292.44 923.991 293.241C923.991 294.017 923.917 294.706 923.77 295.308C923.625 295.907 923.414 296.413 923.139 296.825C922.866 297.237 922.534 297.55 922.142 297.763C921.753 297.976 921.312 298.082 920.821 298.082C920.332 298.082 919.896 297.986 919.512 297.792C919.132 297.596 918.819 297.325 918.575 296.979C918.333 296.629 918.179 296.224 918.11 295.764H919.15C919.244 296.165 919.43 296.496 919.708 296.757C919.99 297.015 920.36 297.145 920.821 297.145C921.494 297.145 922.025 296.851 922.414 296.263C922.807 295.675 923.003 294.844 923.003 293.77H922.934C922.775 294.008 922.586 294.214 922.368 294.388C922.149 294.561 921.906 294.694 921.639 294.788C921.372 294.882 921.088 294.929 920.787 294.929C920.287 294.929 919.828 294.805 919.41 294.558C918.995 294.308 918.663 293.966 918.413 293.531C918.166 293.094 918.042 292.594 918.042 292.031C918.042 291.497 918.162 291.008 918.4 290.565C918.642 290.119 918.98 289.764 919.414 289.5C919.852 289.236 920.366 289.108 920.957 289.116ZM920.957 290.054C920.599 290.054 920.277 290.143 919.99 290.322C919.706 290.498 919.48 290.737 919.312 291.038C919.147 291.336 919.065 291.667 919.065 292.031C919.065 292.395 919.145 292.726 919.304 293.024C919.466 293.319 919.686 293.555 919.964 293.731C920.245 293.905 920.565 293.991 920.923 293.991C921.193 293.991 921.444 293.939 921.677 293.834C921.91 293.726 922.113 293.579 922.287 293.395C922.463 293.207 922.601 292.996 922.7 292.76C922.799 292.521 922.849 292.273 922.849 292.014C922.849 291.673 922.767 291.354 922.602 291.055C922.44 290.757 922.216 290.515 921.929 290.331C921.645 290.146 921.321 290.054 920.957 290.054Z" fill="white"/>
</svg>
