<svg width="981" height="315" viewBox="0 0 981 315" fill="none" xmlns="http://www.w3.org/2000/svg">
<rect width="981" height="315" rx="16" fill="#F4F4F5"/>
<path d="M95.4566 259.875H973.657" stroke="black"/>
<path d="M95.4566 269.325V259.875" stroke="black"/>
<path d="M95.4566 294.863C94.8145 294.863 94.2677 294.689 93.816 294.339C93.3643 293.987 93.0191 293.477 92.7805 292.809C92.5418 292.139 92.4225 291.329 92.4225 290.381C92.4225 289.437 92.5418 288.632 92.7805 287.964C93.0219 287.294 93.3685 286.782 93.8202 286.43C94.2748 286.075 94.8202 285.898 95.4566 285.898C96.093 285.898 96.637 286.075 97.0887 286.43C97.5432 286.782 97.8898 287.294 98.1285 287.964C98.3699 288.632 98.4907 289.437 98.4907 290.381C98.4907 291.329 98.3714 292.139 98.1327 292.809C97.8941 293.477 97.5489 293.987 97.0972 294.339C96.6455 294.689 96.0986 294.863 95.4566 294.863ZM95.4566 293.926C96.093 293.926 96.5873 293.619 96.9395 293.006C97.2918 292.392 97.468 291.517 97.468 290.381C97.468 289.625 97.387 288.981 97.2251 288.45C97.066 287.919 96.8358 287.514 96.5347 287.236C96.2364 286.957 95.877 286.818 95.4566 286.818C94.8259 286.818 94.333 287.129 93.9779 287.751C93.6228 288.371 93.4452 289.247 93.4452 290.381C93.4452 291.136 93.5248 291.778 93.6839 292.307C93.843 292.835 94.0716 293.237 94.3699 293.513C94.6711 293.788 95.0333 293.926 95.4566 293.926Z" fill="white"/>
<path d="M193.034 269.325V259.875" stroke="black"/>
<path d="M194.217 286.017V294.744H193.16V287.125H193.109L190.978 288.54V287.466L193.16 286.017H194.217Z" fill="white"/>
<path d="M290.612 269.325V259.875" stroke="black"/>
<path d="M287.883 294.744V293.977L290.764 290.824C291.102 290.454 291.38 290.133 291.599 289.861C291.818 289.585 291.979 289.327 292.085 289.085C292.193 288.841 292.247 288.585 292.247 288.318C292.247 288.011 292.173 287.746 292.025 287.521C291.88 287.297 291.681 287.123 291.428 287.001C291.175 286.879 290.891 286.818 290.576 286.818C290.241 286.818 289.948 286.888 289.698 287.027C289.451 287.163 289.259 287.355 289.123 287.602C288.989 287.849 288.923 288.139 288.923 288.471H287.917C287.917 287.96 288.035 287.511 288.271 287.125C288.506 286.738 288.827 286.437 289.234 286.221C289.643 286.006 290.102 285.898 290.61 285.898C291.122 285.898 291.575 286.006 291.97 286.221C292.364 286.437 292.674 286.729 292.899 287.095C293.123 287.461 293.235 287.869 293.235 288.318C293.235 288.639 293.177 288.953 293.06 289.26C292.947 289.564 292.748 289.903 292.464 290.278C292.183 290.65 291.792 291.105 291.292 291.642L289.332 293.738V293.807H293.389V294.744H287.883Z" fill="white"/>
<path d="M388.19 269.325V259.875" stroke="black"/>
<path d="M388.222 294.863C387.66 294.863 387.158 294.767 386.718 294.574C386.28 294.381 385.932 294.112 385.674 293.768C385.418 293.422 385.279 293.02 385.256 292.562H386.33C386.353 292.844 386.449 293.086 386.62 293.291C386.79 293.493 387.013 293.649 387.289 293.76C387.564 293.871 387.87 293.926 388.205 293.926C388.58 293.926 388.912 293.861 389.202 293.73C389.492 293.599 389.719 293.417 389.884 293.184C390.049 292.952 390.131 292.682 390.131 292.375C390.131 292.054 390.052 291.771 389.893 291.527C389.733 291.28 389.501 291.086 389.194 290.947C388.887 290.808 388.512 290.738 388.069 290.738H387.37V289.801H388.069C388.415 289.801 388.719 289.738 388.981 289.613C389.245 289.488 389.451 289.312 389.599 289.085C389.749 288.858 389.824 288.591 389.824 288.284C389.824 287.988 389.759 287.731 389.628 287.513C389.498 287.294 389.313 287.123 389.074 287.001C388.839 286.879 388.56 286.818 388.239 286.818C387.938 286.818 387.654 286.873 387.387 286.984C387.123 287.092 386.907 287.25 386.739 287.457C386.572 287.662 386.481 287.909 386.466 288.199H385.444C385.461 287.741 385.599 287.341 385.857 286.997C386.116 286.65 386.454 286.381 386.871 286.187C387.292 285.994 387.753 285.898 388.256 285.898C388.796 285.898 389.259 286.007 389.645 286.226C390.032 286.442 390.329 286.727 390.536 287.082C390.743 287.437 390.847 287.821 390.847 288.233C390.847 288.724 390.718 289.143 390.459 289.49C390.204 289.836 389.856 290.077 389.415 290.21V290.278C389.966 290.369 390.397 290.604 390.706 290.981C391.016 291.356 391.171 291.821 391.171 292.375C391.171 292.849 391.042 293.275 390.783 293.653C390.527 294.028 390.178 294.324 389.735 294.54C389.292 294.756 388.787 294.863 388.222 294.863Z" fill="white"/>
<path d="M485.768 269.325V259.875" stroke="black"/>
<path d="M482.617 292.954V292.085L486.452 286.017H487.083V287.363H486.657L483.759 291.949V292.017H488.924V292.954H482.617ZM486.725 294.744V292.69V292.285V286.017H487.731V294.744H486.725Z" fill="white"/>
<path d="M583.346 269.325V259.875" stroke="black"/>
<path d="M583.326 294.863C582.826 294.863 582.376 294.764 581.975 294.565C581.575 294.366 581.254 294.094 581.012 293.747C580.771 293.4 580.639 293.006 580.616 292.562H581.639C581.678 292.957 581.857 293.284 582.176 293.542C582.497 293.798 582.88 293.926 583.326 293.926C583.684 293.926 584.002 293.842 584.281 293.675C584.562 293.507 584.782 293.277 584.941 292.984C585.103 292.689 585.184 292.355 585.184 291.983C585.184 291.602 585.1 291.263 584.933 290.964C584.768 290.663 584.541 290.426 584.251 290.253C583.961 290.079 583.63 289.991 583.258 289.988C582.991 289.986 582.717 290.027 582.435 290.112C582.154 290.194 581.923 290.301 581.741 290.432L580.752 290.312L581.281 286.017H585.815V286.954H582.167L581.86 289.528H581.911C582.09 289.386 582.315 289.268 582.585 289.175C582.855 289.081 583.136 289.034 583.428 289.034C583.962 289.034 584.438 289.162 584.856 289.417C585.276 289.67 585.606 290.017 585.845 290.457C586.086 290.898 586.207 291.4 586.207 291.966C586.207 292.523 586.082 293.02 585.832 293.457C585.585 293.892 585.244 294.236 584.809 294.488C584.374 294.738 583.88 294.863 583.326 294.863Z" fill="white"/>
<path d="M680.924 269.325V259.875" stroke="black"/>
<path d="M680.981 294.863C680.623 294.858 680.265 294.79 679.907 294.659C679.549 294.528 679.222 294.308 678.927 293.998C678.631 293.686 678.394 293.264 678.215 292.733C678.036 292.199 677.947 291.528 677.947 290.721C677.947 289.949 678.019 289.264 678.164 288.667C678.309 288.068 678.519 287.564 678.795 287.155C679.07 286.743 679.402 286.43 679.792 286.217C680.184 286.004 680.626 285.898 681.117 285.898C681.606 285.898 682.04 285.996 682.421 286.192C682.804 286.385 683.117 286.655 683.358 287.001C683.6 287.348 683.756 287.747 683.827 288.199H682.787C682.691 287.807 682.503 287.481 682.225 287.223C681.947 286.964 681.577 286.835 681.117 286.835C680.441 286.835 679.908 287.129 679.519 287.717C679.133 288.305 678.938 289.131 678.935 290.193H679.003C679.162 289.952 679.351 289.746 679.57 289.575C679.792 289.402 680.036 289.268 680.303 289.175C680.57 289.081 680.853 289.034 681.151 289.034C681.651 289.034 682.108 289.159 682.523 289.409C682.938 289.656 683.27 289.998 683.52 290.436C683.77 290.871 683.895 291.369 683.895 291.932C683.895 292.471 683.775 292.966 683.533 293.415C683.292 293.861 682.952 294.216 682.515 294.48C682.08 294.741 681.569 294.869 680.981 294.863ZM680.981 293.926C681.339 293.926 681.66 293.836 681.944 293.657C682.231 293.479 682.456 293.238 682.621 292.937C682.789 292.636 682.873 292.301 682.873 291.932C682.873 291.571 682.792 291.243 682.63 290.947C682.471 290.649 682.251 290.412 681.969 290.236C681.691 290.059 681.373 289.971 681.015 289.971C680.745 289.971 680.493 290.025 680.26 290.133C680.027 290.238 679.823 290.383 679.647 290.568C679.474 290.753 679.337 290.964 679.238 291.203C679.138 291.439 679.089 291.687 679.089 291.949C679.089 292.295 679.17 292.619 679.331 292.92C679.496 293.221 679.721 293.464 680.005 293.649C680.292 293.834 680.617 293.926 680.981 293.926Z" fill="white"/>
<path d="M778.501 269.325V259.875" stroke="black"/>
<path d="M776.25 294.744L780.153 287.023V286.954H775.653V286.017H781.244V287.006L777.358 294.744H776.25Z" fill="white"/>
<path d="M876.079 269.325V259.875" stroke="black"/>
<path d="M876.081 294.863C875.496 294.863 874.979 294.76 874.53 294.552C874.084 294.342 873.736 294.054 873.486 293.687C873.236 293.318 873.112 292.898 873.115 292.426C873.112 292.057 873.185 291.716 873.332 291.403C873.48 291.088 873.682 290.825 873.937 290.615C874.196 290.402 874.484 290.267 874.803 290.21V290.159C874.385 290.051 874.053 289.817 873.805 289.456C873.558 289.092 873.436 288.679 873.439 288.216C873.436 287.773 873.548 287.376 873.776 287.027C874.003 286.677 874.315 286.402 874.713 286.2C875.114 285.998 875.57 285.898 876.081 285.898C876.587 285.898 877.038 285.998 877.436 286.2C877.834 286.402 878.146 286.677 878.374 287.027C878.604 287.376 878.72 287.773 878.723 288.216C878.72 288.679 878.594 289.092 878.344 289.456C878.097 289.817 877.768 290.051 877.359 290.159V290.21C877.675 290.267 877.959 290.402 878.212 290.615C878.464 290.825 878.666 291.088 878.817 291.403C878.967 291.716 879.044 292.057 879.047 292.426C879.044 292.898 878.916 293.318 878.663 293.687C878.413 294.054 878.065 294.342 877.619 294.552C877.176 294.76 876.663 294.863 876.081 294.863ZM876.081 293.926C876.476 293.926 876.817 293.862 877.104 293.734C877.391 293.606 877.612 293.426 877.768 293.193C877.925 292.96 878.004 292.687 878.007 292.375C878.004 292.045 877.919 291.754 877.751 291.501C877.584 291.248 877.355 291.05 877.065 290.905C876.778 290.76 876.45 290.687 876.081 290.687C875.709 290.687 875.376 290.76 875.084 290.905C874.794 291.05 874.565 291.248 874.398 291.501C874.233 291.754 874.152 292.045 874.155 292.375C874.152 292.687 874.227 292.96 874.381 293.193C874.537 293.426 874.76 293.606 875.05 293.734C875.339 293.862 875.683 293.926 876.081 293.926ZM876.081 289.784C876.393 289.784 876.67 289.721 876.912 289.596C877.156 289.471 877.348 289.297 877.487 289.072C877.626 288.848 877.697 288.585 877.7 288.284C877.697 287.988 877.628 287.731 877.491 287.513C877.355 287.291 877.166 287.121 876.925 287.001C876.683 286.879 876.402 286.818 876.081 286.818C875.754 286.818 875.469 286.879 875.224 287.001C874.98 287.121 874.791 287.291 874.658 287.513C874.524 287.731 874.459 287.988 874.462 288.284C874.459 288.585 874.526 288.848 874.662 289.072C874.801 289.297 874.993 289.471 875.237 289.596C875.481 289.721 875.763 289.784 876.081 289.784Z" fill="white"/>
<path d="M973.657 269.325V259.875" stroke="black"/>
<path d="M973.595 285.898C973.953 285.9 974.311 285.969 974.669 286.102C975.027 286.236 975.353 286.457 975.649 286.767C975.944 287.074 976.182 287.493 976.361 288.024C976.539 288.555 976.629 289.221 976.629 290.023C976.629 290.798 976.555 291.487 976.407 292.089C976.263 292.689 976.052 293.194 975.777 293.606C975.504 294.018 975.172 294.331 974.78 294.544C974.39 294.757 973.95 294.863 973.459 294.863C972.97 294.863 972.534 294.767 972.15 294.574C971.77 294.378 971.457 294.106 971.213 293.76C970.971 293.41 970.816 293.006 970.748 292.545H971.788C971.882 292.946 972.068 293.277 972.346 293.538C972.628 293.797 972.998 293.926 973.459 293.926C974.132 293.926 974.663 293.632 975.052 293.044C975.444 292.456 975.64 291.625 975.64 290.551H975.572C975.413 290.79 975.224 290.996 975.005 291.169C974.787 291.342 974.544 291.476 974.277 291.569C974.01 291.663 973.726 291.71 973.424 291.71C972.924 291.71 972.466 291.586 972.048 291.339C971.633 291.089 971.301 290.747 971.051 290.312C970.804 289.875 970.68 289.375 970.68 288.812C970.68 288.278 970.799 287.79 971.038 287.346C971.28 286.9 971.618 286.545 972.052 286.281C972.49 286.017 973.004 285.889 973.595 285.898ZM973.595 286.835C973.237 286.835 972.914 286.925 972.628 287.104C972.343 287.28 972.118 287.518 971.95 287.819C971.785 288.118 971.703 288.449 971.703 288.812C971.703 289.176 971.782 289.507 971.941 289.805C972.103 290.101 972.324 290.336 972.602 290.513C972.883 290.686 973.203 290.773 973.561 290.773C973.831 290.773 974.082 290.72 974.315 290.615C974.548 290.507 974.751 290.361 974.924 290.176C975.101 289.988 975.238 289.777 975.338 289.541C975.437 289.302 975.487 289.054 975.487 288.795C975.487 288.454 975.405 288.135 975.24 287.836C975.078 287.538 974.853 287.297 974.566 287.112C974.282 286.927 973.959 286.835 973.595 286.835Z" fill="white"/>
<path d="M95.4565 7.875V259.875" stroke="black"/>
<path d="M86.6452 259.875H95.4566" stroke="black"/>
<path d="M75.5524 259.804C74.9104 259.804 74.3635 259.629 73.9118 259.28C73.4601 258.927 73.1149 258.418 72.8763 257.75C72.6376 257.079 72.5183 256.27 72.5183 255.321C72.5183 254.378 72.6376 253.572 72.8763 252.905C73.1177 252.234 73.4643 251.723 73.916 251.371C74.3706 251.016 74.916 250.838 75.5524 250.838C76.1888 250.838 76.7328 251.016 77.1845 251.371C77.639 251.723 77.9856 252.234 78.2243 252.905C78.4657 253.572 78.5865 254.378 78.5865 255.321C78.5865 256.27 78.4672 257.079 78.2285 257.75C77.9899 258.418 77.6447 258.927 77.193 259.28C76.7413 259.629 76.1944 259.804 75.5524 259.804ZM75.5524 258.866C76.1888 258.866 76.6831 258.56 77.0354 257.946C77.3876 257.332 77.5638 256.457 77.5638 255.321C77.5638 254.565 77.4828 253.922 77.3209 253.391C77.1618 252.859 76.9317 252.454 76.6305 252.176C76.3322 251.898 75.9729 251.758 75.5524 251.758C74.9217 251.758 74.4288 252.07 74.0737 252.692C73.7186 253.311 73.541 254.187 73.541 255.321C73.541 256.077 73.6206 256.719 73.7797 257.247C73.9388 257.775 74.1675 258.177 74.4657 258.453C74.7669 258.729 75.1291 258.866 75.5524 258.866Z" fill="white"/>
<path d="M86.6452 196.875H95.4566" stroke="black"/>
<path d="M58.1394 196.685V195.918L61.0201 192.764C61.3582 192.395 61.6366 192.074 61.8553 191.801C62.0741 191.525 62.236 191.267 62.3411 191.025C62.4491 190.781 62.503 190.525 62.503 190.258C62.503 189.952 62.4292 189.686 62.2814 189.462C62.1366 189.237 61.9377 189.064 61.6849 188.942C61.432 188.82 61.1479 188.758 60.8326 188.758C60.4974 188.758 60.2047 188.828 59.9547 188.967C59.7076 189.104 59.5158 189.295 59.3795 189.543C59.2459 189.79 59.1792 190.079 59.1792 190.412H58.1735C58.1735 189.9 58.2914 189.452 58.5272 189.065C58.763 188.679 59.084 188.378 59.4903 188.162C59.8993 187.946 60.3582 187.838 60.8667 187.838C61.378 187.838 61.8312 187.946 62.226 188.162C62.6209 188.378 62.9306 188.669 63.155 189.035C63.3795 189.402 63.4917 189.81 63.4917 190.258C63.4917 190.579 63.4334 190.893 63.317 191.2C63.2033 191.504 63.0045 191.844 62.7204 192.219C62.4391 192.591 62.0485 193.045 61.5485 193.582L59.5883 195.679V195.747H63.6451V196.685H58.1394ZM68.1323 196.804C67.6323 196.804 67.182 196.704 66.7814 196.506C66.3809 196.307 66.0599 196.034 65.8184 195.687C65.5769 195.341 65.4448 194.946 65.4221 194.503H66.4448C66.4846 194.898 66.6635 195.224 66.9817 195.483C67.3028 195.739 67.6863 195.866 68.1323 195.866C68.4903 195.866 68.8084 195.783 69.0868 195.615C69.3681 195.447 69.5883 195.217 69.7474 194.925C69.9093 194.629 69.9903 194.295 69.9903 193.923C69.9903 193.543 69.9064 193.203 69.7388 192.905C69.5741 192.604 69.3468 192.366 69.057 192.193C68.7672 192.02 68.4363 191.932 68.0641 191.929C67.7971 191.926 67.5229 191.967 67.2417 192.052C66.9604 192.135 66.7289 192.241 66.5471 192.372L65.5584 192.253L66.0868 187.957H70.6209V188.895H66.9732L66.6664 191.469H66.7175C66.8965 191.327 67.1209 191.209 67.3908 191.115C67.6607 191.021 67.942 190.974 68.2346 190.974C68.7687 190.974 69.2445 191.102 69.6621 191.358C70.0826 191.611 70.4121 191.957 70.6508 192.398C70.8922 192.838 71.013 193.341 71.013 193.906C71.013 194.463 70.888 194.96 70.638 195.398C70.3908 195.832 70.0499 196.176 69.6153 196.429C69.1806 196.679 68.6863 196.804 68.1323 196.804ZM75.5524 196.804C74.9104 196.804 74.3635 196.629 73.9118 196.28C73.4601 195.927 73.1149 195.418 72.8763 194.75C72.6376 194.079 72.5183 193.27 72.5183 192.321C72.5183 191.378 72.6376 190.572 72.8763 189.905C73.1177 189.234 73.4643 188.723 73.916 188.371C74.3706 188.016 74.916 187.838 75.5524 187.838C76.1888 187.838 76.7328 188.016 77.1845 188.371C77.639 188.723 77.9856 189.234 78.2243 189.905C78.4658 190.572 78.5865 191.378 78.5865 192.321C78.5865 193.27 78.4672 194.079 78.2285 194.75C77.9899 195.418 77.6447 195.927 77.193 196.28C76.7413 196.629 76.1944 196.804 75.5524 196.804ZM75.5524 195.866C76.1888 195.866 76.6831 195.56 77.0354 194.946C77.3876 194.332 77.5638 193.457 77.5638 192.321C77.5638 191.565 77.4828 190.922 77.3209 190.391C77.1618 189.859 76.9317 189.454 76.6305 189.176C76.3322 188.898 75.9729 188.758 75.5524 188.758C74.9217 188.758 74.4288 189.07 74.0737 189.692C73.7186 190.311 73.541 191.187 73.541 192.321C73.541 193.077 73.6206 193.719 73.7797 194.247C73.9388 194.775 74.1675 195.177 74.4658 195.453C74.7669 195.729 75.1291 195.866 75.5524 195.866Z" fill="white"/>
<path d="M86.6452 133.875H95.4566" stroke="black"/>
<path d="M60.6323 133.804C60.1323 133.804 59.682 133.704 59.2814 133.506C58.8809 133.307 58.5599 133.034 58.3184 132.687C58.0769 132.341 57.9448 131.946 57.9221 131.503H58.9448C58.9846 131.898 59.1635 132.224 59.4817 132.483C59.8028 132.739 60.1863 132.866 60.6323 132.866C60.9903 132.866 61.3084 132.783 61.5868 132.615C61.8681 132.447 62.0883 132.217 62.2474 131.925C62.4093 131.629 62.4903 131.295 62.4903 130.923C62.4903 130.543 62.4064 130.203 62.2388 129.905C62.0741 129.604 61.8468 129.366 61.557 129.193C61.2672 129.02 60.9363 128.932 60.5641 128.929C60.2971 128.926 60.0229 128.967 59.7417 129.052C59.4604 129.135 59.2289 129.241 59.0471 129.372L58.0584 129.253L58.5868 124.957H63.1209V125.895H59.4732L59.1664 128.469H59.2175C59.3965 128.327 59.6209 128.209 59.8908 128.115C60.1607 128.021 60.442 127.974 60.7346 127.974C61.2687 127.974 61.7445 128.102 62.1621 128.358C62.5826 128.611 62.9121 128.957 63.1508 129.398C63.3922 129.838 63.513 130.341 63.513 130.906C63.513 131.463 63.388 131.96 63.138 132.398C62.8908 132.832 62.5499 133.176 62.1153 133.429C61.6806 133.679 61.1863 133.804 60.6323 133.804ZM68.0524 133.804C67.4104 133.804 66.8635 133.629 66.4118 133.28C65.9601 132.927 65.6149 132.418 65.3763 131.75C65.1376 131.079 65.0183 130.27 65.0183 129.321C65.0183 128.378 65.1376 127.572 65.3763 126.905C65.6177 126.234 65.9643 125.723 66.416 125.371C66.8706 125.016 67.416 124.838 68.0524 124.838C68.6888 124.838 69.2328 125.016 69.6845 125.371C70.139 125.723 70.4856 126.234 70.7243 126.905C70.9658 127.572 71.0865 128.378 71.0865 129.321C71.0865 130.27 70.9672 131.079 70.7285 131.75C70.4899 132.418 70.1447 132.927 69.693 133.28C69.2413 133.629 68.6944 133.804 68.0524 133.804ZM68.0524 132.866C68.6888 132.866 69.1831 132.56 69.5354 131.946C69.8876 131.332 70.0638 130.457 70.0638 129.321C70.0638 128.565 69.9828 127.922 69.8209 127.391C69.6618 126.859 69.4317 126.454 69.1305 126.176C68.8322 125.898 68.4729 125.758 68.0524 125.758C67.4217 125.758 66.9288 126.07 66.5737 126.692C66.2186 127.311 66.041 128.187 66.041 129.321C66.041 130.077 66.1206 130.719 66.2797 131.247C66.4388 131.775 66.6675 132.177 66.9658 132.453C67.2669 132.729 67.6291 132.866 68.0524 132.866ZM75.5524 133.804C74.9104 133.804 74.3635 133.629 73.9118 133.28C73.4601 132.927 73.1149 132.418 72.8763 131.75C72.6376 131.079 72.5183 130.27 72.5183 129.321C72.5183 128.378 72.6376 127.572 72.8763 126.905C73.1177 126.234 73.4643 125.723 73.916 125.371C74.3706 125.016 74.916 124.838 75.5524 124.838C76.1888 124.838 76.7328 125.016 77.1845 125.371C77.639 125.723 77.9856 126.234 78.2243 126.905C78.4658 127.572 78.5865 128.378 78.5865 129.321C78.5865 130.27 78.4672 131.079 78.2285 131.75C77.9899 132.418 77.6447 132.927 77.193 133.28C76.7413 133.629 76.1944 133.804 75.5524 133.804ZM75.5524 132.866C76.1888 132.866 76.6831 132.56 77.0354 131.946C77.3876 131.332 77.5638 130.457 77.5638 129.321C77.5638 128.565 77.4828 127.922 77.3209 127.391C77.1618 126.859 76.9317 126.454 76.6305 126.176C76.3322 125.898 75.9729 125.758 75.5524 125.758C74.9217 125.758 74.4288 126.07 74.0737 126.692C73.7186 127.311 73.541 128.187 73.541 129.321C73.541 130.077 73.6206 130.719 73.7797 131.247C73.9388 131.775 74.1675 132.177 74.4658 132.453C74.7669 132.729 75.1291 132.866 75.5524 132.866Z" fill="white"/>
<path d="M86.6452 70.875H95.4566" stroke="black"/>
<path d="M58.9395 70.6846L62.8429 62.963V62.8948H58.3429V61.9573H63.9338V62.9459L60.0474 70.6846H58.9395ZM68.1323 70.8039C67.6323 70.8039 67.182 70.7045 66.7815 70.5056C66.3809 70.3067 66.0599 70.034 65.8184 69.6874C65.5769 69.3408 65.4448 68.9459 65.4221 68.5028H66.4448C66.4846 68.8976 66.6636 69.2243 66.9817 69.4829C67.3028 69.7385 67.6863 69.8664 68.1323 69.8664C68.4903 69.8664 68.8084 69.7826 69.0868 69.615C69.3681 69.4474 69.5883 69.2172 69.7474 68.9246C69.9093 68.6292 69.9903 68.2954 69.9903 67.9232C69.9903 67.5425 69.9065 67.203 69.7388 66.9047C69.5741 66.6036 69.3468 66.3664 69.057 66.1931C68.7672 66.0198 68.4363 65.9317 68.0641 65.9289C67.7971 65.926 67.5229 65.9672 67.2417 66.0525C66.9604 66.1349 66.7289 66.2414 66.5471 66.3721L65.5584 66.2528L66.0868 61.9573H70.6209V62.8948H66.9732L66.6664 65.4687H66.7175C66.8965 65.3266 67.1209 65.2087 67.3908 65.115C67.6607 65.0212 67.942 64.9743 68.2346 64.9743C68.7687 64.9743 69.2445 65.1022 69.6621 65.3579C70.0826 65.6107 70.4121 65.9573 70.6508 66.3976C70.8922 66.838 71.013 67.3408 71.013 67.9062C71.013 68.463 70.888 68.9601 70.638 69.3976C70.3908 69.8323 70.0499 70.176 69.6153 70.4289C69.1806 70.6789 68.6863 70.8039 68.1323 70.8039ZM75.5524 70.8039C74.9104 70.8039 74.3635 70.6292 73.9118 70.2797C73.4601 69.9275 73.1149 69.4175 72.8763 68.7499C72.6376 68.0795 72.5183 67.2698 72.5183 66.3209C72.5183 65.3778 72.6376 64.5724 72.8763 63.9047C73.1177 63.2343 73.4643 62.7229 73.916 62.3706C74.3706 62.0155 74.916 61.838 75.5524 61.838C76.1888 61.838 76.7328 62.0155 77.1845 62.3706C77.6391 62.7229 77.9856 63.2343 78.2243 63.9047C78.4658 64.5724 78.5865 65.3778 78.5865 66.3209C78.5865 67.2698 78.4672 68.0795 78.2285 68.7499C77.9899 69.4175 77.6447 69.9275 77.193 70.2797C76.7413 70.6292 76.1944 70.8039 75.5524 70.8039ZM75.5524 69.8664C76.1888 69.8664 76.6831 69.5596 77.0354 68.9459C77.3876 68.3323 77.5638 67.4573 77.5638 66.3209C77.5638 65.5653 77.4828 64.9218 77.3209 64.3905C77.1618 63.8593 76.9317 63.4545 76.6305 63.176C76.3322 62.8976 75.9729 62.7584 75.5524 62.7584C74.9217 62.7584 74.4288 63.0695 74.0737 63.6917C73.7186 64.311 73.541 65.1874 73.541 66.3209C73.541 67.0766 73.6206 67.7187 73.7797 68.2471C73.9388 68.7755 74.1675 69.1775 74.4658 69.453C74.7669 69.7286 75.1291 69.8664 75.5524 69.8664Z" fill="white"/>
<path d="M86.6452 7.875H95.4566" stroke="black"/>
<path d="M55.1958 5.57253V14.2998H54.139V6.68049H54.0879L51.9572 8.09526V7.0214L54.139 5.57253H55.1958ZM60.5524 14.4191C59.9103 14.4191 59.3635 14.2444 58.9117 13.895C58.46 13.5427 58.1149 13.0328 57.8762 12.3651C57.6376 11.6947 57.5183 10.885 57.5183 9.93617C57.5183 8.99299 57.6376 8.18759 57.8762 7.51997C58.1177 6.84952 58.4643 6.33816 58.916 5.98588C59.3706 5.63077 59.916 5.45321 60.5524 5.45321C61.1887 5.45321 61.7328 5.63077 62.1845 5.98588C62.639 6.33816 62.9856 6.84952 63.2242 7.51997C63.4657 8.18759 63.5865 8.99299 63.5865 9.93617C63.5865 10.885 63.4671 11.6947 63.2285 12.3651C62.9899 13.0328 62.6447 13.5427 62.193 13.895C61.7413 14.2444 61.1944 14.4191 60.5524 14.4191ZM60.5524 13.4816C61.1887 13.4816 61.6831 13.1748 62.0353 12.5612C62.3876 11.9475 62.5637 11.0725 62.5637 9.93617C62.5637 9.18049 62.4828 8.53702 62.3208 8.00577C62.1617 7.47452 61.9316 7.06969 61.6305 6.79128C61.3322 6.51287 60.9728 6.37367 60.5524 6.37367C59.9217 6.37367 59.4288 6.68475 59.0737 7.30691C58.7186 7.92622 58.541 8.80265 58.541 9.93617C58.541 10.6918 58.6206 11.3339 58.7796 11.8623C58.9387 12.3907 59.1674 12.7927 59.4657 13.0683C59.7669 13.3438 60.1291 13.4816 60.5524 13.4816ZM68.0524 14.4191C67.4103 14.4191 66.8635 14.2444 66.4117 13.895C65.96 13.5427 65.6149 13.0328 65.3762 12.3651C65.1376 11.6947 65.0183 10.885 65.0183 9.93617C65.0183 8.99299 65.1376 8.18759 65.3762 7.51997C65.6177 6.84952 65.9643 6.33816 66.416 5.98588C66.8706 5.63077 67.416 5.45321 68.0524 5.45321C68.6887 5.45321 69.2328 5.63077 69.6845 5.98588C70.139 6.33816 70.4856 6.84952 70.7242 7.51997C70.9657 8.18759 71.0865 8.99299 71.0865 9.93617C71.0865 10.885 70.9671 11.6947 70.7285 12.3651C70.4899 13.0328 70.1447 13.5427 69.693 13.895C69.2413 14.2444 68.6944 14.4191 68.0524 14.4191ZM68.0524 13.4816C68.6887 13.4816 69.1831 13.1748 69.5353 12.5612C69.8876 11.9475 70.0637 11.0725 70.0637 9.93617C70.0637 9.18049 69.9828 8.53702 69.8208 8.00577C69.6617 7.47452 69.4316 7.06969 69.1305 6.79128C68.8322 6.51287 68.4728 6.37367 68.0524 6.37367C67.4217 6.37367 66.9288 6.68475 66.5737 7.30691C66.2186 7.92622 66.041 8.80265 66.041 9.93617C66.041 10.6918 66.1206 11.3339 66.2796 11.8623C66.4387 12.3907 66.6674 12.7927 66.9657 13.0683C67.2669 13.3438 67.6291 13.4816 68.0524 13.4816ZM75.5524 14.4191C74.9103 14.4191 74.3635 14.2444 73.9117 13.895C73.46 13.5427 73.1149 13.0328 72.8762 12.3651C72.6376 11.6947 72.5183 10.885 72.5183 9.93617C72.5183 8.99299 72.6376 8.18759 72.8762 7.51997C73.1177 6.84952 73.4643 6.33816 73.916 5.98588C74.3706 5.63077 74.916 5.45321 75.5524 5.45321C76.1887 5.45321 76.7328 5.63077 77.1845 5.98588C77.639 6.33816 77.9856 6.84952 78.2242 7.51997C78.4657 8.18759 78.5865 8.99299 78.5865 9.93617C78.5865 10.885 78.4671 11.6947 78.2285 12.3651C77.9899 13.0328 77.6447 13.5427 77.193 13.895C76.7413 14.2444 76.1944 14.4191 75.5524 14.4191ZM75.5524 13.4816C76.1887 13.4816 76.6831 13.1748 77.0353 12.5612C77.3876 11.9475 77.5637 11.0725 77.5637 9.93617C77.5637 9.18049 77.4828 8.53702 77.3208 8.00577C77.1617 7.47452 76.9316 7.06969 76.6305 6.79128C76.3322 6.51287 75.9728 6.37367 75.5524 6.37367C74.9217 6.37367 74.4288 6.68475 74.0737 7.30691C73.7186 7.92622 73.541 8.80265 73.541 9.93617C73.541 10.6918 73.6206 11.3339 73.7796 11.8623C73.9387 12.3907 74.1674 12.7927 74.4657 13.0683C74.7669 13.3438 75.1291 13.4816 75.5524 13.4816Z" fill="white"/>
<path d="M95.4565 159.83L193.034 123.29L290.612 223.082L388.19 239.21L485.768 149.498L583.346 42.1465L680.924 180.494L778.501 225.854L876.079 161.594L973.657 172.934" stroke="#7C3AED"/>
<path d="M95.4566 164.555C97.8898 164.555 99.8623 162.44 99.8623 159.83C99.8623 157.221 97.8898 155.105 95.4566 155.105C93.0234 155.105 91.0509 157.221 91.0509 159.83C91.0509 162.44 93.0234 164.555 95.4566 164.555Z" fill="white" stroke="#7C3AED"/>
<path d="M193.034 128.015C195.468 128.015 197.44 125.9 197.44 123.29C197.44 120.681 195.468 118.565 193.034 118.565C190.601 118.565 188.629 120.681 188.629 123.29C188.629 125.9 190.601 128.015 193.034 128.015Z" fill="white" stroke="#7C3AED"/>
<path d="M290.612 227.807C293.045 227.807 295.018 225.692 295.018 223.082C295.018 220.473 293.045 218.357 290.612 218.357C288.179 218.357 286.207 220.473 286.207 223.082C286.207 225.692 288.179 227.807 290.612 227.807Z" fill="white" stroke="#7C3AED"/>
<path d="M388.19 243.936C390.623 243.936 392.596 241.821 392.596 239.211C392.596 236.602 390.623 234.486 388.19 234.486C385.757 234.486 383.784 236.602 383.784 239.211C383.784 241.821 385.757 243.936 388.19 243.936Z" fill="white" stroke="#7C3AED"/>
<path d="M485.768 154.223C488.201 154.223 490.174 152.108 490.174 149.498C490.174 146.889 488.201 144.773 485.768 144.773C483.335 144.773 481.362 146.889 481.362 149.498C481.362 152.108 483.335 154.223 485.768 154.223Z" fill="white" stroke="#7C3AED"/>
<path d="M583.346 46.8719C585.779 46.8719 587.752 44.7564 587.752 42.1469C587.752 39.5373 585.779 37.4219 583.346 37.4219C580.913 37.4219 578.94 39.5373 578.94 42.1469C578.94 44.7564 580.913 46.8719 583.346 46.8719Z" fill="white" stroke="#7C3AED"/>
<path d="M680.924 185.22C683.357 185.22 685.329 183.104 685.329 180.495C685.329 177.885 683.357 175.77 680.924 175.77C678.49 175.77 676.518 177.885 676.518 180.495C676.518 183.104 678.49 185.22 680.924 185.22Z" fill="white" stroke="#7C3AED"/>
<path d="M778.501 230.58C780.935 230.58 782.907 228.464 782.907 225.855C782.907 223.245 780.935 221.13 778.501 221.13C776.068 221.13 774.096 223.245 774.096 225.855C774.096 228.464 776.068 230.58 778.501 230.58Z" fill="white" stroke="#7C3AED"/>
<path d="M876.079 166.32C878.513 166.32 880.485 164.205 880.485 161.595C880.485 158.986 878.513 156.87 876.079 156.87C873.646 156.87 871.674 158.986 871.674 161.595C871.674 164.205 873.646 166.32 876.079 166.32Z" fill="white" stroke="#7C3AED"/>
<path d="M973.657 177.66C976.09 177.66 978.063 175.545 978.063 172.935C978.063 170.325 976.09 168.21 973.657 168.21C971.224 168.21 969.252 170.325 969.252 172.935C969.252 175.545 971.224 177.66 973.657 177.66Z" fill="white" stroke="#7C3AED"/>
</svg>
